if (_typeface_js && _typeface_js.loadFace) _typeface_js.loadFace({"glyphs":{"0":{"ha":771,"x_min":28,"x_max":743,"o":"m 386 -10 q 242 24 307 -10 q 128 119 176 57 q 54 272 81 182 q 28 474 28 361 q 54 674 28 583 q 128 827 81 764 q 242 925 176 890 q 386 960 307 960 q 531 925 465 960 q 643 827 596 890 q 717 674 690 764 q 743 474 743 583 q 717 272 743 361 q 643 119 690 182 q 531 24 596 57 q 386 -10 465 -10 m 386 165 q 455 187 424 165 q 510 249 486 208 q 547 346 533 289 q 560 474 560 403 q 510 697 560 617 q 386 778 461 778 q 258 697 308 778 q 207 474 207 617 q 220 346 207 403 q 258 249 233 289 q 315 187 282 208 q 386 165 347 165 z "},"1":{"ha":238,"x_min":28,"x_max":210,"o":"m 28 0 l 28 915 l 210 982 l 210 0 l 28 0 z "},"2":{"ha":713,"x_min":28,"x_max":685,"o":"m 51 165 l 329 456 q 374 507 350 479 q 417 563 397 535 q 451 620 438 592 q 464 674 464 649 q 456 722 464 699 q 431 765 447 746 q 392 794 415 783 q 338 806 368 806 q 288 798 314 806 q 238 774 263 790 q 193 732 214 757 q 161 672 172 707 l 28 778 q 160 928 78 872 q 338 985 242 985 q 470 961 411 985 q 571 896 529 938 q 635 797 613 854 q 657 669 657 739 q 640 578 657 624 q 598 490 624 532 q 542 411 572 449 q 483 343 511 374 l 363 214 l 339 185 l 685 185 l 685 0 l 51 0 l 51 165 z "},"3":{"ha":710,"x_min":28,"x_max":682,"o":"m 682 294 q 655 167 682 224 q 581 72 628 111 q 474 13 535 33 q 344 -8 413 -8 q 182 28 256 -8 q 28 144 108 64 l 175 269 q 261 189 218 213 q 344 165 304 165 q 456 203 415 165 q 496 294 496 240 q 444 389 496 353 q 301 425 393 425 l 224 425 l 224 607 l 304 607 q 414 632 371 607 q 457 706 457 657 q 424 767 457 743 q 340 792 390 792 q 256 769 293 792 q 178 697 218 746 l 35 815 q 177 928 107 892 q 340 965 247 965 q 460 949 404 965 q 556 901 515 933 q 621 819 597 868 q 644 707 644 771 q 624 606 644 651 q 568 529 604 561 q 651 433 619 494 q 682 294 682 371 z "},"4":{"ha":713,"x_min":28,"x_max":685,"o":"m 428 1 l 428 236 l 28 236 l 28 367 l 461 972 l 611 972 l 611 421 l 685 421 l 685 236 l 611 236 l 611 1 l 428 1 m 428 421 l 428 526 q 428 553 428 543 q 427 572 428 563 q 426 592 426 581 q 426 625 426 604 q 335 511 378 564 q 264 421 293 458 l 428 421 z "},"5":{"ha":719,"x_min":28,"x_max":692,"o":"m 692 364 q 666 234 692 300 q 594 115 640 168 q 485 28 549 63 q 347 -6 422 -6 q 182 33 257 -6 q 28 147 107 71 l 171 275 q 259 199 213 219 q 347 178 306 178 q 410 194 381 178 q 462 237 440 211 q 497 294 483 263 q 510 358 510 326 q 455 476 510 432 q 311 519 400 519 q 271 517 296 519 q 216 508 246 514 q 153 496 186 503 q 89 479 121 489 l 138 974 l 621 974 l 621 790 l 297 790 l 297 781 q 296 760 296 768 q 296 744 296 751 q 294 727 296 738 q 292 700 293 717 l 329 700 q 467 680 401 700 q 583 618 533 660 q 663 513 633 576 q 692 364 692 450 z "},"6":{"ha":711,"x_min":28,"x_max":683,"o":"m 28 374 q 57 560 28 465 q 150 739 86 656 q 316 885 214 822 q 564 974 418 947 l 615 810 q 499 772 551 794 q 406 724 447 750 q 334 668 365 697 q 282 610 303 639 q 333 618 304 615 q 390 621 363 621 q 499 599 446 621 q 593 538 553 578 q 658 442 633 499 q 683 315 683 386 q 660 187 683 246 q 595 84 638 128 q 493 16 553 40 q 360 -8 433 -8 q 219 22 281 -8 q 115 105 157 53 q 50 226 72 157 q 28 374 28 296 m 214 356 q 224 285 214 318 q 253 225 235 251 q 300 183 272 199 q 364 168 328 168 q 464 208 428 168 q 500 310 500 247 q 465 406 500 371 q 376 440 429 440 q 217 376 285 440 q 214 356 214 363 z "},"7":{"ha":644,"x_min":28,"x_max":617,"o":"m 617 844 l 472 576 q 408 448 440 515 q 349 315 375 381 q 308 188 324 249 q 292 81 292 128 l 292 0 l 111 0 l 111 79 q 122 204 111 144 q 154 327 132 264 q 210 460 176 390 q 289 613 243 529 l 289 611 q 299 631 293 621 q 316 660 306 642 q 343 710 326 679 q 385 789 360 740 l 28 789 l 28 972 l 617 972 l 617 844 z "},"8":{"ha":733,"x_min":28,"x_max":706,"o":"m 28 299 q 59 442 28 375 q 140 543 90 508 q 85 620 106 575 q 64 721 64 665 q 88 833 64 785 q 153 915 111 882 q 250 963 194 947 q 369 979 306 979 l 375 979 q 465 967 425 979 l 464 967 q 612 882 556 943 q 668 721 668 821 q 647 620 668 665 q 592 543 626 575 q 674 442 642 508 q 706 299 706 375 q 683 182 706 235 q 623 90 661 129 q 533 26 585 50 q 422 -4 481 1 l 310 -4 q 200 26 251 1 q 110 90 149 50 q 50 182 72 129 q 28 299 28 235 m 515 299 q 476 389 515 349 q 365 436 436 429 q 256 390 294 431 q 217 299 217 350 q 231 247 217 271 q 265 206 244 224 q 313 178 286 188 q 364 168 339 168 q 417 177 390 168 q 467 203 444 186 q 502 245 489 221 q 515 299 515 269 m 363 801 q 283 777 315 799 q 250 719 250 756 q 285 654 250 679 q 369 624 319 629 q 448 656 414 631 q 482 719 482 681 q 447 778 482 756 q 364 801 413 801 l 363 801 z "},"9":{"ha":711,"x_min":28,"x_max":683,"o":"m 683 593 q 654 405 683 501 q 561 224 625 308 q 395 76 497 140 q 147 -15 293 11 l 97 147 q 211 185 160 161 q 303 239 263 210 q 376 299 344 268 q 429 358 407 329 q 379 350 406 353 q 322 347 353 347 q 213 368 265 347 q 119 428 160 389 q 53 525 78 468 q 28 653 28 582 q 51 781 28 722 q 116 884 74 840 q 218 952 158 928 q 351 976 278 976 q 492 946 431 976 q 597 863 554 915 q 661 742 639 811 q 683 593 683 672 m 497 611 q 487 683 497 649 q 457 744 476 718 q 410 785 438 769 q 347 801 382 801 q 247 760 283 801 q 211 657 211 719 q 247 563 211 596 q 335 529 282 529 q 494 590 426 529 q 497 603 496 597 q 497 611 497 608 z "}," ":{"ha":417,"x_min":0,"x_max":0,"o":""},"T":{"ha":682,"x_min":28,"x_max":654,"o":"m 440 778 l 440 0 l 246 0 l 246 778 l 28 778 l 28 972 l 654 972 l 654 778 l 440 778 z "},"U":{"ha":854,"x_min":28,"x_max":826,"o":"m 425 -10 q 358 -6 389 -10 q 230 31 289 4 q 126 101 171 58 q 56 203 82 144 q 28 335 31 263 l 28 972 l 222 972 l 222 351 q 237 281 222 311 q 276 231 251 251 q 333 200 300 211 q 404 186 367 189 q 413 185 411 185 q 417 185 414 185 l 436 185 q 440 185 439 185 q 449 186 442 185 q 519 200 486 189 q 578 231 553 211 q 617 281 603 251 q 632 351 632 311 l 632 972 l 826 972 l 826 335 q 798 203 824 261 q 728 101 772 144 q 623 30 683 57 q 492 -6 563 3 l 446 -10 l 425 -10 l 425 -10 z "},"V":{"ha":924,"x_min":28,"x_max":896,"o":"m 461 357 l 540 578 q 611 776 572 671 q 682 972 650 881 l 896 972 l 547 0 l 376 0 l 28 972 l 242 972 l 461 357 z "},"W":{"ha":1260,"x_min":28,"x_max":1232,"o":"m 960 0 l 786 0 l 635 549 q 599 420 615 483 q 563 294 582 357 l 563 296 l 478 0 l 300 0 l 28 972 l 236 972 l 392 428 q 467 702 428 563 q 543 972 507 842 l 722 972 l 874 428 l 1026 972 l 1232 972 l 960 0 z "},"X":{"ha":972,"x_min":28,"x_max":944,"o":"m 269 0 l 28 0 l 368 490 q 285 608 329 546 q 198 732 242 669 q 111 856 154 794 q 29 972 68 917 l 274 972 l 483 664 q 506 696 494 681 q 528 728 517 711 q 613 851 568 788 q 697 972 657 915 l 939 972 l 603 492 l 707 342 l 706 342 l 944 0 l 699 0 l 483 314 l 269 0 z "},"Y":{"ha":961,"x_min":28,"x_max":933,"o":"m 479 660 l 582 806 l 700 972 l 933 972 l 578 449 q 577 346 578 399 q 576 240 576 293 l 576 0 l 382 0 l 382 451 l 206 710 l 28 972 l 260 972 l 479 660 z "},"Z":{"ha":792,"x_min":28,"x_max":764,"o":"m 300 194 l 764 194 l 764 0 l 28 0 l 28 157 l 461 778 l 54 778 l 54 972 l 732 972 l 732 818 l 300 194 z "},"[":{"ha":308,"x_min":28,"x_max":281,"o":"m 28 -78 l 28 1071 l 281 1071 l 281 913 l 192 913 l 192 81 l 281 81 l 281 -78 l 28 -78 z "},"\\":{"ha":588,"x_min":28,"x_max":560,"o":"m 385 0 l 28 971 l 201 971 l 560 0 l 385 0 z "},"]":{"ha":308,"x_min":28,"x_max":281,"o":"m 28 -78 l 28 81 l 117 81 l 117 913 l 28 913 l 28 1071 l 281 1071 l 281 -78 l 28 -78 z "},"_":{"ha":750,"x_min":28,"x_max":722,"o":"m 28 -249 l 28 -83 l 722 -83 l 722 -249 l 28 -249 z "},"`":{"ha":375,"x_min":28,"x_max":347,"o":"m 172 815 l 28 972 l 219 972 l 347 815 l 172 815 z "},"a":{"ha":640,"x_min":28,"x_max":613,"o":"m 432 271 q 379 280 407 278 q 322 282 351 282 q 281 278 301 282 q 245 267 261 275 q 219 247 229 260 q 210 214 210 233 q 234 176 210 189 q 301 164 258 164 q 374 177 340 164 q 432 219 408 190 l 432 271 m 432 0 l 432 14 q 361 -3 399 0 q 283 -7 324 -7 q 183 7 229 -7 q 101 49 136 21 q 47 117 67 76 q 28 213 28 158 q 51 320 28 274 q 112 398 74 367 q 201 444 150 429 q 307 460 251 460 q 369 459 340 460 q 431 451 399 458 q 322 528 418 528 q 256 513 286 528 q 182 443 225 497 l 49 560 q 176 667 111 632 q 325 701 242 701 q 442 685 389 701 q 533 636 494 668 q 592 556 571 604 q 613 446 613 508 l 613 0 l 432 0 z "},"b":{"ha":675,"x_min":28,"x_max":647,"o":"m 211 696 q 248 701 231 700 q 286 703 265 703 q 419 683 354 703 q 535 619 485 663 q 617 510 586 576 q 647 350 647 443 q 622 208 647 272 q 550 96 597 143 q 435 22 503 49 q 283 -4 368 -4 q 28 42 174 -4 l 28 972 l 211 972 l 211 696 m 460 349 q 411 483 460 436 q 279 531 363 531 q 246 528 264 531 q 211 521 228 525 l 211 174 q 250 168 229 169 q 290 167 271 167 q 415 217 371 167 q 460 349 460 267 z "},"c":{"ha":675,"x_min":28,"x_max":647,"o":"m 617 103 q 509 25 569 54 q 357 -4 449 -4 q 209 26 271 -4 q 107 105 147 56 q 47 218 67 154 q 28 350 28 282 q 49 488 28 424 q 111 601 69 553 q 214 676 153 649 q 356 703 275 703 q 511 663 440 703 q 644 554 582 622 l 518 432 q 438 503 478 476 q 358 531 399 531 q 290 516 318 531 q 244 477 263 501 q 219 421 226 453 q 211 353 211 389 q 219 283 211 317 q 246 224 228 250 q 292 183 264 199 q 360 167 321 167 q 444 191 400 167 q 533 268 488 215 l 647 144 l 617 103 z "},"d":{"ha":675,"x_min":28,"x_max":647,"o":"m 464 972 l 647 972 l 647 42 q 392 -4 501 -4 q 240 22 307 -4 q 125 96 172 49 q 53 208 78 143 q 28 350 28 272 q 58 510 28 443 q 140 619 89 576 q 255 683 190 663 q 388 703 319 703 q 427 701 410 703 q 464 696 444 700 l 464 972 m 214 349 q 259 217 214 267 q 386 167 304 167 q 425 168 406 167 q 464 174 444 169 l 464 521 q 428 528 446 525 q 396 531 411 531 q 263 483 313 531 q 214 349 214 436 z "},"e":{"ha":686,"x_min":28,"x_max":658,"o":"m 631 106 q 517 23 582 51 q 363 -6 453 -6 q 215 23 278 -6 q 111 100 153 51 q 49 211 69 149 q 28 343 28 274 q 53 502 28 435 q 122 614 78 569 q 223 680 165 658 q 346 701 281 701 q 580 595 501 701 q 658 286 658 489 l 218 286 q 271 197 232 228 q 368 165 310 165 q 451 188 408 165 q 540 261 494 210 l 658 138 l 631 106 m 346 535 q 268 515 296 535 q 226 457 240 494 l 467 457 q 425 513 456 492 q 346 535 394 535 z "},"f":{"ha":433,"x_min":28,"x_max":406,"o":"m 28 696 l 82 696 q 97 796 85 746 q 133 886 108 846 q 196 951 157 926 q 293 976 235 976 q 306 976 299 976 q 326 972 314 975 q 358 965 339 969 q 406 953 378 961 l 379 790 q 341 800 354 796 q 321 806 328 804 q 312 808 314 807 q 307 808 310 808 q 281 795 289 807 q 269 766 272 783 q 266 729 265 749 q 267 696 267 710 l 369 696 l 369 522 l 265 522 l 265 0 l 82 0 l 82 522 l 28 522 l 28 696 z "},"g":{"ha":685,"x_min":28,"x_max":657,"o":"m 336 -106 q 438 -81 403 -106 q 475 1 472 -57 q 437 -3 456 -1 q 401 -6 418 -6 q 267 15 332 -6 q 151 78 201 35 q 71 188 101 121 q 40 347 40 254 q 65 489 40 424 q 138 601 90 554 q 252 675 185 649 q 404 701 319 701 q 522 690 458 701 q 657 656 585 678 l 657 24 q 633 -118 657 -60 q 567 -213 610 -176 q 464 -267 524 -250 q 333 -285 404 -285 q 169 -244 246 -285 q 28 -136 93 -204 l 151 -3 q 336 -106 242 -106 m 226 349 q 275 213 226 261 q 407 165 324 165 q 475 175 442 165 l 475 524 q 437 528 457 528 q 397 529 417 529 q 272 480 317 529 q 226 349 226 431 z "},"h":{"ha":654,"x_min":28,"x_max":626,"o":"m 444 0 l 444 431 q 415 506 444 482 q 340 531 385 531 q 299 521 318 531 q 263 497 279 511 q 234 465 247 482 q 211 431 221 447 l 211 0 l 28 0 l 28 972 l 211 972 l 211 672 q 278 697 242 688 q 358 706 315 706 q 463 689 414 706 q 548 640 511 672 q 606 559 585 607 q 626 447 626 511 l 626 0 l 444 0 z "},"i":{"ha":256,"x_min":28,"x_max":228,"o":"m 38 0 l 38 694 l 219 694 l 219 0 l 38 0 m 28 876 q 55 949 28 921 q 128 976 82 976 q 200 949 172 976 q 228 876 228 921 q 200 804 228 832 q 128 776 172 776 q 55 804 82 776 q 28 876 28 832 z "},"j":{"ha":403,"x_min":28,"x_max":375,"o":"m 28 -85 q 147 -40 111 -74 q 183 57 183 -6 l 183 696 l 365 696 l 365 53 q 349 -54 365 -3 q 296 -147 332 -106 q 203 -215 260 -187 q 68 -251 147 -243 l 28 -85 m 175 876 q 203 949 175 921 q 275 976 231 976 q 347 949 319 976 q 375 876 375 921 q 347 804 375 832 q 275 776 319 776 q 203 804 231 776 q 175 876 175 832 z "},"k":{"ha":706,"x_min":28,"x_max":678,"o":"m 28 0 l 28 972 l 210 972 l 210 476 l 426 694 l 678 694 l 335 358 l 674 0 l 419 0 l 210 232 l 210 0 l 28 0 z "},"l":{"ha":236,"x_min":28,"x_max":208,"o":"m 28 0 l 28 972 l 208 972 l 208 0 l 28 0 z "},"m":{"ha":1069,"x_min":28,"x_max":1042,"o":"m 861 0 l 861 431 q 831 505 861 481 q 756 531 800 529 q 704 522 728 531 q 663 499 681 513 q 635 467 646 485 q 625 436 625 450 l 625 0 l 446 0 l 446 431 q 415 506 446 482 q 340 531 385 531 q 294 522 317 531 q 252 499 271 513 q 222 468 233 485 q 210 438 210 451 l 210 0 l 28 0 l 28 696 l 210 696 l 210 671 q 277 696 240 686 q 358 706 314 706 q 472 685 419 706 q 563 624 525 665 q 651 679 599 654 q 774 706 703 704 q 878 690 829 706 q 963 641 926 674 q 1020 560 999 608 q 1042 447 1042 511 l 1042 0 l 861 0 z "},"n":{"ha":653,"x_min":28,"x_max":625,"o":"m 444 0 l 444 431 q 415 506 444 482 q 339 531 385 531 q 292 522 315 531 q 251 499 269 513 q 222 468 233 485 q 210 438 210 451 l 210 0 l 28 0 l 28 696 l 210 696 l 210 671 q 357 706 272 706 q 461 689 413 706 q 547 640 510 672 q 604 559 583 607 q 625 447 625 511 l 625 0 l 444 0 z "},"o":{"ha":711,"x_min":28,"x_max":683,"o":"m 496 344 q 488 421 496 386 q 464 481 481 456 q 420 520 447 506 q 354 535 393 535 q 247 482 279 535 q 215 346 215 429 q 223 271 215 306 q 247 210 231 236 q 290 170 264 185 q 354 156 317 156 q 463 209 431 156 q 496 344 496 263 m 683 343 q 663 206 683 269 q 602 94 643 142 q 499 19 561 46 q 354 -8 438 -8 q 211 19 272 -8 q 110 95 150 47 q 49 208 69 143 q 28 347 28 274 q 49 487 28 422 q 110 599 69 551 q 211 674 150 647 q 354 701 272 701 q 499 674 438 701 q 602 597 561 646 q 663 483 643 549 q 683 343 683 418 z "},"p":{"ha":681,"x_min":28,"x_max":653,"o":"m 210 -296 l 28 -296 l 28 656 q 165 690 101 678 q 282 701 228 701 q 435 675 367 701 q 551 601 503 649 q 626 489 600 554 q 653 347 653 424 q 621 188 653 254 q 538 78 589 121 q 420 15 486 35 q 286 -6 354 -6 q 248 -4 267 -6 q 210 1 229 -3 l 210 -296 m 460 349 q 415 480 460 431 q 289 529 369 529 q 249 528 268 529 q 210 522 229 526 l 210 176 q 245 169 228 172 q 278 165 263 165 q 411 213 363 165 q 460 349 460 261 z "},"q":{"ha":674,"x_min":28,"x_max":646,"o":"m 464 1 q 426 -4 444 -3 q 389 -6 407 -6 q 255 15 319 -6 q 140 78 190 35 q 58 188 89 121 q 28 347 28 254 q 53 489 28 424 q 125 601 78 554 q 240 675 172 649 q 392 701 307 701 q 510 690 447 701 q 646 656 572 678 l 646 -296 l 464 -296 l 464 1 m 215 349 q 264 213 215 261 q 396 165 313 165 q 429 169 411 165 q 464 176 447 172 l 464 524 q 426 528 446 528 q 386 529 406 529 q 260 480 304 529 q 215 349 215 431 z "},"r":{"ha":525,"x_min":28,"x_max":497,"o":"m 449 500 q 383 522 413 514 q 339 531 354 531 q 292 522 315 531 q 251 499 269 513 q 222 468 233 485 q 211 438 211 451 l 211 0 l 28 0 l 28 694 l 211 694 l 211 671 q 357 706 272 706 q 415 700 378 706 q 497 682 453 694 l 449 500 z "},"s":{"ha":622,"x_min":28,"x_max":594,"o":"m 440 475 q 388 524 418 503 q 322 544 357 544 q 274 529 289 544 q 260 500 260 514 q 290 467 260 481 q 360 442 319 454 q 436 414 397 429 q 507 374 475 399 q 559 311 539 349 q 579 215 579 274 q 558 122 579 163 q 501 52 538 81 q 418 8 465 24 q 317 -7 371 -7 q 168 31 238 -7 q 28 149 99 68 l 151 275 q 236 194 190 222 q 321 167 282 167 q 378 177 360 167 q 397 203 397 188 q 365 244 397 229 q 289 272 332 258 q 215 299 253 283 q 147 338 178 314 q 97 399 117 363 q 78 492 78 436 q 147 649 78 594 q 324 704 215 704 q 396 699 361 704 q 463 678 431 693 q 528 638 496 664 q 594 569 561 611 l 465 444 l 440 475 z "},"t":{"ha":433,"x_min":28,"x_max":406,"o":"m 82 524 l 28 524 l 28 697 l 82 697 l 82 860 l 265 860 l 265 697 l 369 697 l 369 524 l 265 524 l 265 272 q 271 197 265 231 q 297 160 276 163 q 308 158 300 160 q 327 158 315 157 q 352 165 339 160 q 381 182 365 171 l 406 10 q 344 -5 376 -4 q 293 -6 313 -6 q 190 17 231 -6 q 126 77 150 39 q 92 165 101 115 q 82 269 82 215 l 82 524 z "},"u":{"ha":669,"x_min":28,"x_max":642,"o":"m 211 694 l 211 267 q 245 190 211 215 q 325 165 279 165 q 408 183 376 165 q 458 228 439 200 l 458 694 l 642 694 l 642 0 l 463 0 l 463 19 q 306 -8 399 -8 q 197 8 247 -8 q 108 58 146 25 q 49 138 71 90 q 28 250 28 186 l 28 694 l 211 694 z "},"v":{"ha":782,"x_min":28,"x_max":754,"o":"m 471 0 l 317 0 l 28 694 l 228 694 l 394 275 l 564 694 l 754 694 l 471 0 z "},"w":{"ha":1124,"x_min":28,"x_max":1096,"o":"m 853 0 l 704 0 l 564 385 l 419 0 l 271 0 l 28 694 l 219 694 l 353 304 l 365 339 q 428 519 394 424 q 492 694 463 615 l 638 694 l 778 306 l 910 694 l 1096 694 l 853 0 z "},"x":{"ha":797,"x_min":28,"x_max":769,"o":"m 549 0 l 394 213 l 311 96 l 242 0 l 28 0 l 282 353 l 33 694 l 254 694 l 407 489 q 483 593 443 538 q 557 694 524 649 l 768 694 l 519 349 l 769 0 l 549 0 z "},"z":{"ha":607,"x_min":28,"x_max":579,"o":"m 272 179 l 579 179 l 579 0 l 28 0 l 28 147 l 308 517 l 28 517 l 28 694 l 561 694 l 561 549 l 272 179 z "},"y":{"ha":785,"x_min":28,"x_max":757,"o":"m 106 -86 q 164 -72 131 -81 q 227 -49 197 -62 q 278 -15 257 -35 q 303 32 300 6 l 28 694 l 231 694 l 394 283 l 558 694 l 757 694 l 460 -32 q 353 -178 435 -118 q 146 -251 272 -237 l 106 -86 z "},"{":{"ha":349,"x_min":28,"x_max":321,"o":"m 236 415 q 236 252 238 315 q 235 153 235 189 q 238 104 235 118 q 253 90 242 90 l 321 89 l 321 -76 l 253 -76 q 126 -33 176 -76 q 69 104 76 11 l 69 383 q 63 410 68 401 q 28 419 58 419 l 28 600 q 63 608 57 600 q 69 635 68 617 l 69 890 q 126 1028 76 985 q 253 1071 176 1071 l 321 1071 l 321 907 l 253 906 q 238 885 240 906 q 236 847 236 864 l 236 604 q 231 555 233 579 q 213 510 228 531 q 231 463 228 486 q 236 415 233 440 z "},"|":{"ha":219,"x_min":28,"x_max":192,"o":"m 192 -137 l 28 -137 l 28 1106 l 192 1106 l 192 -137 z "},"€":{"ha":747,"x_min":28,"x_max":719,"o":"m 699 144 q 585 33 650 74 q 436 -7 521 -7 q 331 11 378 -7 q 249 62 285 29 q 187 138 213 94 q 144 233 161 182 l 28 233 l 28 403 l 121 403 l 121 411 l 121 429 l 28 429 l 28 597 l 149 597 q 191 690 165 647 q 252 766 217 733 q 333 817 288 799 q 436 835 379 835 q 592 783 522 835 q 719 651 663 732 l 590 515 q 531 596 560 560 l 531 429 l 299 429 l 299 403 l 531 403 l 531 233 l 340 233 q 383 189 357 208 q 438 169 408 169 q 508 203 471 169 q 590 303 546 238 l 715 175 l 699 144 m 438 661 q 387 642 411 661 q 347 597 363 622 l 528 597 q 480 644 503 628 q 438 661 457 661 z "},"„":{"ha":508,"x_min":28,"x_max":481,"o":"m 214 -182 l 300 208 l 481 208 l 372 -182 l 214 -182 m 28 -182 l 117 208 l 296 208 l 188 -182 l 28 -182 z "},"…":{"ha":814,"x_min":28,"x_max":786,"o":"m 28 104 q 57 179 28 149 q 132 210 86 210 q 207 179 176 210 q 238 104 238 149 q 207 29 238 58 q 132 0 176 0 q 57 29 86 0 q 28 104 28 58 m 301 104 q 330 179 301 149 q 407 210 358 210 q 481 179 451 210 q 511 104 511 149 q 481 29 511 58 q 407 0 451 0 q 330 29 358 0 q 301 104 301 58 m 575 104 q 603 179 575 149 q 681 210 632 210 q 756 179 725 210 q 786 104 786 149 q 756 29 786 58 q 681 0 725 0 q 603 29 632 0 q 575 104 575 58 z "},"ˆ":{"ha":585,"x_min":28,"x_max":557,"o":"m 28 690 l 229 972 l 356 972 l 557 690 l 365 690 l 292 799 l 219 690 l 28 690 z "},"‹":{"ha":458,"x_min":28,"x_max":431,"o":"m 233 81 l 28 326 l 233 574 l 431 574 l 235 326 q 283 267 260 296 q 331 208 307 239 l 431 81 l 233 81 z "},"Œ":{"ha":1167,"x_min":28,"x_max":1139,"o":"m 496 0 q 287 39 375 0 q 141 144 199 78 q 56 298 83 210 q 28 485 28 386 q 58 674 28 585 q 147 828 88 763 q 293 933 206 894 q 496 972 381 972 l 1113 972 l 1113 789 l 700 789 l 700 599 l 1072 599 l 1072 417 l 700 417 l 700 183 l 1139 183 l 1139 0 l 496 0 m 507 792 l 503 792 q 381 769 433 792 q 294 705 329 746 q 241 608 258 664 q 224 486 224 553 q 243 360 224 417 q 299 265 263 304 q 388 203 336 225 q 503 182 439 182 l 507 182 l 507 792 z "},"‘":{"ha":326,"x_min":28,"x_max":299,"o":"m 299 975 l 206 764 l 28 764 l 125 975 l 299 975 z "},"’":{"ha":326,"x_min":28,"x_max":299,"o":"m 299 975 l 206 764 l 28 764 l 125 975 l 299 975 z "},"“":{"ha":519,"x_min":28,"x_max":492,"o":"m 299 972 l 206 763 l 28 763 l 125 972 l 299 972 m 492 972 l 397 763 l 219 763 l 318 972 l 492 972 z "},"”":{"ha":519,"x_min":28,"x_max":492,"o":"m 299 972 l 206 763 l 28 763 l 125 972 l 299 972 m 492 972 l 397 763 l 219 763 l 318 972 l 492 972 z "},"•":{"ha":376,"x_min":28,"x_max":349,"o":"m 28 325 q 40 390 28 360 q 73 442 51 419 q 124 476 94 464 q 188 488 153 488 q 251 476 222 488 q 302 442 281 464 q 336 390 324 419 q 349 325 349 360 q 303 210 349 254 q 188 167 257 167 q 72 210 117 167 q 28 325 28 254 z "},"–":{"ha":701,"x_min":28,"x_max":674,"o":"m 28 244 l 28 408 l 674 408 l 674 244 l 28 244 z "},"˜":{"ha":571,"x_min":28,"x_max":543,"o":"m 543 839 q 485 801 510 817 q 439 776 460 786 q 399 763 418 767 q 358 758 381 758 q 312 765 332 758 q 268 783 292 772 q 236 799 253 790 q 204 807 219 807 q 189 801 199 807 q 167 788 179 796 l 115 749 l 28 874 q 115 947 75 922 q 206 971 154 971 q 254 963 228 971 q 313 942 281 956 q 343 928 332 932 q 363 925 354 925 q 378 928 369 925 q 407 943 388 932 l 451 971 l 543 839 z "},"—":{"ha":964,"x_min":28,"x_max":936,"o":"m 28 244 l 28 408 l 936 408 l 936 244 l 28 244 z "},"›":{"ha":449,"x_min":28,"x_max":421,"o":"m 28 81 l 210 326 l 147 411 l 28 574 l 217 574 l 421 326 l 217 81 l 28 81 z "},"¢":{"ha":665,"x_min":28,"x_max":638,"o":"m 611 128 q 525 50 574 82 q 424 4 476 18 l 424 -122 l 258 -122 l 258 8 q 157 58 200 24 q 85 139 114 92 q 42 242 57 186 q 28 356 28 297 q 42 472 28 415 q 85 575 57 528 q 157 656 114 622 q 258 706 200 690 l 258 824 l 424 824 l 424 707 q 535 653 482 692 q 638 557 589 615 l 503 440 q 458 490 478 468 q 424 522 439 511 l 424 192 q 461 226 443 206 q 503 274 479 246 l 632 161 l 611 128 m 208 356 q 221 272 208 314 q 258 203 233 231 l 258 511 q 221 441 233 483 q 208 356 208 399 z "},"£":{"ha":675,"x_min":28,"x_max":647,"o":"m 81 483 q 65 531 71 506 q 60 585 60 557 q 132 767 60 697 q 339 838 204 838 q 504 796 431 838 q 647 665 578 754 l 510 535 q 335 658 431 658 q 265 641 286 658 q 243 596 243 624 q 253 543 243 567 q 282 497 264 519 l 293 483 l 558 483 l 558 311 l 375 311 l 375 304 q 369 242 375 274 q 350 188 363 210 l 636 188 l 636 0 l 29 0 l 29 151 q 149 221 100 181 q 197 300 197 261 q 196 311 197 307 l 28 311 l 28 483 l 81 483 z "},"¥":{"ha":761,"x_min":28,"x_max":733,"o":"m 292 0 l 292 131 l 114 131 l 114 303 l 292 303 l 292 335 l 114 335 l 114 508 l 213 508 q 178 569 194 538 q 143 632 163 600 l 28 838 l 240 838 l 382 585 q 455 712 418 647 q 524 838 492 776 l 733 838 l 544 508 l 646 508 l 646 335 l 468 335 l 468 303 l 646 303 l 646 131 l 468 131 l 468 0 l 292 0 z "},"¨":{"ha":476,"x_min":28,"x_max":449,"o":"m 28 851 q 55 924 28 896 q 126 951 82 951 q 201 924 172 951 q 229 851 229 896 q 201 779 229 807 q 126 751 172 751 q 55 779 82 751 q 28 851 28 807 m 247 851 q 274 924 247 896 q 346 951 301 951 q 420 924 392 951 q 449 851 449 896 q 420 779 449 807 q 346 751 392 751 q 274 779 301 751 q 247 851 247 807 z "},"«":{"ha":710,"x_min":28,"x_max":682,"o":"m 233 82 l 28 328 l 233 574 l 436 574 l 242 328 q 267 296 254 313 q 302 253 281 279 q 356 185 324 226 q 436 82 388 144 l 233 82 m 479 82 l 275 328 l 479 574 l 682 574 l 488 328 q 513 296 500 313 q 548 253 526 279 q 601 185 569 226 q 682 82 633 144 l 479 82 z "},"¯":{"ha":454,"x_min":28,"x_max":426,"o":"m 28 803 l 28 974 l 426 974 l 426 803 l 28 803 z "},"´":{"ha":375,"x_min":28,"x_max":347,"o":"m 28 815 l 156 972 l 347 972 l 203 815 l 28 815 z "},"·":{"ha":265,"x_min":28,"x_max":238,"o":"m 28 100 q 56 176 28 147 q 132 206 85 206 q 208 176 178 206 q 238 100 238 147 q 208 25 238 54 q 132 -4 178 -4 q 56 25 85 -4 q 28 100 28 54 z "},"¸":{"ha":390,"x_min":28,"x_max":363,"o":"m 176 -200 q 108 -187 146 -200 q 28 -151 69 -174 l 82 0 q 136 -30 110 -17 q 175 -43 163 -43 q 196 -35 188 -43 q 204 -7 204 -26 q 199 38 204 8 q 182 113 193 68 l 339 113 q 356 47 350 81 q 363 -11 363 13 q 312 -151 363 -101 q 176 -200 261 -200 z "},"»":{"ha":710,"x_min":28,"x_max":682,"o":"m 274 82 q 354 185 322 144 q 408 253 386 226 q 442 296 429 279 q 468 328 456 313 l 274 574 l 476 574 l 682 328 l 476 82 l 274 82 m 28 82 q 108 185 76 144 q 162 253 140 226 q 197 296 183 279 q 222 328 210 313 l 28 574 l 231 574 l 435 328 l 231 82 l 28 82 z "},"¿":{"ha":614,"x_min":28,"x_max":586,"o":"m 414 672 q 387 600 414 628 q 315 572 360 572 q 242 600 271 572 q 214 672 214 628 q 242 745 214 718 q 315 772 271 772 q 387 745 360 772 q 414 672 414 718 m 235 550 l 394 550 l 400 301 q 314 244 350 269 q 255 197 278 219 q 222 153 232 175 q 211 108 211 132 q 238 44 211 65 q 308 24 265 24 q 386 48 349 24 q 464 118 424 72 l 586 -4 q 454 -109 521 -74 q 301 -144 388 -144 q 200 -130 249 -144 q 113 -85 151 -115 q 51 -7 74 -54 q 28 106 28 40 q 45 199 28 158 q 91 274 63 240 q 156 336 119 308 q 232 389 193 364 l 235 550 z "},"Æ":{"ha":1224,"x_min":28,"x_max":1196,"o":"m 632 0 l 632 360 l 463 360 l 249 0 l 28 0 l 599 972 l 1158 972 l 1158 790 l 822 790 l 822 540 l 1125 540 l 1125 360 l 822 360 l 822 182 l 1196 182 l 1196 0 l 632 0 m 632 664 l 565 539 l 632 539 l 632 664 z "},"!":{"ha":261,"x_min":28,"x_max":233,"o":"m 28 100 q 56 176 28 147 q 131 204 85 204 q 204 176 175 204 q 233 100 233 147 q 204 28 233 56 q 131 0 175 0 q 56 28 85 0 q 28 100 28 56 m 228 274 l 33 274 l 33 971 l 228 971 l 228 274 z "},"\"":{"ha":431,"x_min":28,"x_max":403,"o":"m 390 583 l 242 583 l 226 974 l 403 974 l 390 583 m 188 583 l 39 583 l 28 974 l 201 974 l 188 583 z "},"#":{"ha":649,"x_min":28,"x_max":621,"o":"m 264 0 l 296 151 l 281 151 l 249 0 l 79 0 l 107 151 l 28 151 l 28 317 l 142 317 l 153 374 l 28 374 l 28 539 l 189 539 l 218 688 l 383 688 l 356 539 l 375 539 l 403 688 l 572 688 l 540 539 l 621 539 l 621 374 l 507 374 l 496 317 l 621 317 l 621 151 l 464 151 l 433 0 l 264 0 m 343 374 l 322 374 l 310 319 q 307 318 310 318 q 306 317 306 318 l 329 317 l 343 374 z "},"$":{"ha":732,"x_min":28,"x_max":704,"o":"m 686 331 q 626 174 686 235 q 468 93 567 113 l 468 -36 l 290 -36 l 290 90 q 156 140 219 100 q 28 256 93 181 l 167 389 q 231 318 201 347 q 290 278 261 289 l 290 428 q 211 457 249 440 q 145 500 174 474 q 99 565 117 526 q 82 661 82 604 q 92 738 82 700 q 127 806 103 775 q 192 860 151 838 q 290 892 232 882 l 290 1015 l 468 1015 l 468 892 q 704 729 594 865 l 563 608 q 468 703 510 681 l 468 571 q 549 540 510 558 q 619 494 589 522 q 667 427 649 467 q 686 331 686 388 m 496 318 q 468 369 496 349 l 468 279 q 490 295 483 286 q 496 318 496 304 m 272 671 q 290 632 272 649 l 290 704 q 272 671 272 692 z "},"&":{"ha":835,"x_min":28,"x_max":807,"o":"m 807 106 l 656 -24 l 583 69 q 338 -6 479 -6 q 115 81 206 -6 q 28 294 28 168 q 72 442 28 378 q 203 564 117 506 q 153 656 171 611 q 135 735 135 700 q 210 907 135 836 q 290 956 244 938 q 389 974 336 974 q 483 956 442 974 q 558 907 525 939 q 628 740 628 838 q 591 619 628 669 q 486 521 554 569 l 528 465 q 542 448 536 454 q 551 436 547 442 q 561 424 556 431 q 575 406 567 418 q 582 451 579 425 q 588 508 585 476 l 778 508 q 753 349 767 415 q 713 229 739 282 l 807 106 m 374 661 q 419 699 401 679 q 436 739 436 718 q 420 781 436 765 q 382 796 404 796 q 342 781 358 796 q 326 744 326 767 q 338 713 326 733 q 368 667 349 693 l 374 661 m 314 421 q 248 363 269 390 q 226 301 226 336 q 258 215 226 251 q 340 179 292 179 q 471 221 413 179 l 314 421 z "},"'":{"ha":228,"x_min":28,"x_max":200,"o":"m 189 583 l 36 583 l 28 974 l 200 974 l 189 583 z "},"(":{"ha":475,"x_min":28,"x_max":447,"o":"m 247 -87 q 169 21 208 -37 q 98 150 129 79 q 47 304 67 221 q 28 488 28 388 q 47 671 28 588 q 98 825 67 754 q 169 955 129 896 q 247 1063 208 1014 l 447 1063 q 351 929 396 997 q 272 789 306 861 q 220 642 239 717 q 201 488 201 567 q 220 333 201 408 q 272 187 239 258 q 351 47 306 115 q 447 -87 396 -22 l 247 -87 z "},")":{"ha":475,"x_min":28,"x_max":447,"o":"m 28 -87 q 124 47 79 -22 q 203 187 169 115 q 255 333 236 258 q 274 488 274 408 q 255 642 274 567 q 203 789 236 717 q 124 929 169 861 q 28 1063 79 997 l 228 1063 q 306 955 267 1014 q 377 825 346 896 q 428 671 408 754 q 447 488 447 588 q 428 304 447 388 q 377 150 408 221 q 306 21 346 79 q 228 -87 267 -37 l 28 -87 z "},"*":{"ha":576,"x_min":28,"x_max":549,"o":"m 418 675 q 438 651 429 663 q 454 628 446 640 l 504 561 l 381 468 l 289 585 l 199 472 l 75 558 l 157 679 q 90 704 125 690 q 28 728 56 718 l 76 872 l 208 828 l 208 974 l 367 974 l 368 829 l 504 871 l 549 725 l 418 675 z "},"+":{"ha":679,"x_min":28,"x_max":651,"o":"m 256 40 l 256 268 l 28 268 l 28 432 l 256 432 l 256 663 l 421 663 l 421 432 l 651 432 l 651 268 l 421 268 l 421 40 l 256 40 z "},",":{"ha":336,"x_min":28,"x_max":308,"o":"m 28 -172 l 131 218 l 308 218 l 200 -172 l 28 -172 z "},"-":{"ha":393,"x_min":28,"x_max":365,"o":"m 28 265 l 28 433 l 365 433 l 365 265 l 28 265 z "},".":{"ha":269,"x_min":28,"x_max":242,"o":"m 28 107 q 57 183 28 151 q 135 215 86 215 q 210 183 179 215 q 242 107 242 151 q 210 29 242 58 q 135 0 179 0 q 57 29 86 0 q 28 107 28 58 z "},"/":{"ha":588,"x_min":28,"x_max":560,"o":"m 28 0 l 385 974 l 560 974 l 201 0 l 28 0 z "},":":{"ha":269,"x_min":28,"x_max":242,"o":"m 28 107 q 57 183 28 151 q 135 215 86 215 q 210 183 179 215 q 242 107 242 151 q 210 29 242 58 q 135 0 179 0 q 57 29 86 0 q 28 107 28 58 m 28 585 q 57 662 28 631 q 135 693 86 693 q 210 662 179 693 q 242 585 242 631 q 210 508 242 538 q 135 478 179 478 q 57 508 86 478 q 28 585 28 538 z "},";":{"ha":342,"x_min":28,"x_max":314,"o":"m 28 -182 l 136 208 l 314 208 l 204 -182 l 28 -182 m 97 585 q 127 662 97 631 q 204 693 157 693 q 281 662 250 693 q 313 585 313 631 q 281 508 313 538 q 204 478 250 478 q 127 508 157 478 q 97 585 97 538 z "},"=":{"ha":646,"x_min":28,"x_max":618,"o":"m 28 168 l 28 343 l 618 343 l 618 168 l 28 168 m 28 399 l 28 578 l 618 578 l 618 399 l 28 399 z "},"?":{"ha":611,"x_min":28,"x_max":583,"o":"m 197 107 q 226 181 197 150 q 303 211 254 211 q 377 181 346 211 q 408 107 408 150 q 377 29 408 58 q 303 0 346 0 q 226 29 254 0 q 197 107 197 58 m 392 229 l 214 229 l 211 553 q 295 606 260 583 q 353 649 331 629 q 385 685 375 668 q 396 724 396 703 q 371 780 396 761 q 308 799 346 799 q 238 774 272 799 q 164 697 204 749 l 28 833 q 165 940 99 904 q 317 976 231 976 q 416 962 368 976 q 501 916 464 947 q 561 837 539 885 q 583 724 583 789 q 566 642 583 681 q 521 567 549 603 q 459 502 493 532 q 392 447 425 472 l 392 229 z "},"@":{"ha":935,"x_min":28,"x_max":907,"o":"m 558 426 q 510 440 535 436 q 460 444 485 444 q 424 442 442 444 q 392 431 406 439 q 369 413 378 424 q 360 385 360 401 q 382 342 360 357 q 443 326 404 326 q 504 345 472 326 q 558 389 536 364 l 558 426 m 907 504 q 894 393 907 442 q 861 309 882 344 q 813 251 840 274 q 754 219 785 229 l 810 136 q 651 33 738 65 q 465 0 565 0 q 277 35 358 0 q 140 134 196 71 q 56 285 85 197 q 28 475 28 372 q 56 653 28 568 q 139 803 83 739 q 276 907 194 868 q 465 946 358 946 q 645 915 564 946 q 785 826 726 883 q 875 686 843 768 q 907 504 907 604 m 690 339 q 701 331 690 331 q 726 338 714 331 q 748 365 739 346 q 763 417 757 385 q 769 499 769 449 q 747 638 769 578 q 685 740 725 699 q 590 802 646 781 q 465 824 533 824 q 333 795 390 824 q 239 719 276 767 q 182 608 201 671 q 163 474 163 544 q 181 335 163 399 q 238 226 200 272 q 334 153 276 179 q 469 126 392 126 q 597 144 539 126 q 708 211 654 163 l 699 211 q 633 224 664 211 q 583 256 603 236 q 431 201 514 201 q 285 251 342 201 q 229 383 229 300 q 247 467 229 432 q 294 524 264 501 q 363 558 324 547 q 446 568 403 568 q 503 565 474 568 q 558 554 533 561 l 558 567 q 533 625 558 604 q 460 646 507 646 q 400 628 432 646 q 332 565 368 610 l 242 665 q 340 746 283 718 q 463 774 396 774 q 628 723 567 774 q 690 576 690 672 l 690 339 z "},"˝":{"ha":606,"x_min":28,"x_max":578,"o":"m 28 661 l 197 971 l 376 971 l 203 661 l 28 661 m 229 661 l 399 971 l 578 971 l 406 661 l 229 661 z "},"˚":{"ha":394,"x_min":28,"x_max":367,"o":"m 218 810 q 213 827 218 819 q 197 835 208 835 q 183 828 188 835 q 179 810 179 821 q 183 792 179 799 q 197 785 188 785 q 218 810 218 785 m 367 810 q 356 745 367 775 q 323 693 344 715 q 270 658 301 671 q 197 644 239 644 q 72 692 115 644 q 28 810 28 740 q 72 925 28 878 q 197 972 115 972 q 324 924 281 972 q 367 810 367 876 z "},"A":{"ha":924,"x_min":28,"x_max":896,"o":"m 586 264 l 336 264 q 288 132 313 200 q 242 0 264 64 l 28 0 l 376 972 l 547 972 l 896 0 l 681 0 l 586 264 m 406 457 l 517 457 l 490 533 q 483 556 485 550 q 478 567 481 561 q 473 582 476 572 q 461 615 469 592 l 406 457 z "},"B":{"ha":781,"x_min":28,"x_max":753,"o":"m 28 0 l 28 972 l 419 972 q 529 949 478 972 q 619 888 581 926 q 681 798 658 850 q 703 688 703 746 q 688 601 703 646 q 649 524 672 557 q 726 424 700 482 q 753 299 753 367 q 729 182 753 236 q 665 88 706 128 q 569 24 624 47 q 453 0 515 0 l 28 0 m 222 194 l 453 194 q 494 204 475 194 q 528 229 514 214 q 552 265 543 244 q 561 308 561 286 q 529 378 561 351 q 453 404 497 404 l 222 404 l 222 194 m 222 778 l 222 599 l 421 599 q 484 625 458 599 q 510 689 510 651 q 484 753 510 728 q 421 778 458 778 l 222 778 z "},"C":{"ha":871,"x_min":28,"x_max":843,"o":"m 28 492 q 54 675 28 586 q 134 833 81 764 q 269 943 188 901 q 464 985 351 985 q 674 933 582 985 q 843 789 765 881 l 699 661 q 580 764 636 738 q 467 790 524 790 q 358 765 404 790 q 281 699 311 740 q 237 603 251 657 q 222 490 222 549 q 237 377 222 432 q 281 281 251 322 q 358 213 311 239 q 467 188 404 188 q 581 215 525 188 q 699 321 638 243 l 843 193 q 675 49 768 103 q 464 -6 582 -6 q 269 37 351 -6 q 134 149 188 79 q 54 308 81 218 q 28 492 28 397 z "},"D":{"ha":892,"x_min":28,"x_max":864,"o":"m 864 489 q 834 299 864 388 q 746 143 804 210 q 599 38 688 76 q 394 0 511 0 l 28 0 l 28 972 l 394 972 q 603 933 515 972 q 750 828 692 894 q 836 675 808 763 q 864 489 864 588 m 667 488 q 592 701 667 625 q 389 778 518 778 l 222 778 l 222 194 l 389 194 q 597 274 528 194 q 667 488 667 354 z "},"}":{"ha":349,"x_min":28,"x_max":321,"o":"m 113 415 q 118 463 115 440 q 136 510 121 486 q 118 555 121 531 q 113 604 115 579 l 113 847 q 110 885 113 864 q 96 906 108 906 l 28 907 l 28 1071 l 96 1071 q 222 1028 172 1071 q 279 890 272 985 l 279 635 q 286 608 281 617 q 321 600 292 600 l 321 419 q 285 410 290 419 q 279 383 281 401 l 279 104 q 222 -33 272 11 q 96 -76 172 -76 l 28 -76 l 28 89 l 96 90 q 110 104 106 90 q 114 153 114 118 q 113 252 114 189 q 113 415 111 315 z "},">":{"ha":475,"x_min":28,"x_max":447,"o":"m 28 78 l 221 324 l 214 335 l 168 390 l 29 576 l 239 576 l 447 326 l 239 78 l 28 78 z "},"<":{"ha":474,"x_min":28,"x_max":446,"o":"m 236 78 l 28 326 l 236 576 l 446 576 l 253 326 l 271 304 l 269 306 q 339 217 297 269 q 439 78 381 164 l 236 78 z "},"™":{"ha":1113,"x_min":28,"x_max":1085,"o":"m 336 793 l 336 283 l 147 283 l 147 793 l 28 793 l 28 971 l 454 971 l 454 793 l 336 793 m 897 286 l 897 542 l 836 428 l 774 307 l 651 533 l 651 286 l 464 286 l 464 971 l 619 971 l 774 689 l 929 971 l 1085 971 l 1085 286 l 897 286 z "},"¦":{"ha":215,"x_min":28,"x_max":188,"o":"m 28 583 l 28 978 l 188 978 l 188 583 l 28 583 m 28 -1 l 28 393 l 188 393 l 188 -1 l 28 -1 z "},"§":{"ha":579,"x_min":28,"x_max":551,"o":"m 551 471 q 535 401 551 436 q 497 339 519 365 q 524 283 515 314 q 532 219 532 253 q 511 126 532 167 q 456 57 490 85 q 376 15 422 29 q 281 0 331 0 q 163 15 222 0 q 28 65 104 29 l 99 208 q 163 184 136 193 q 211 169 190 175 q 249 162 232 164 q 283 160 265 160 q 339 173 319 160 q 358 218 358 186 q 348 243 358 232 q 321 263 338 254 q 283 280 304 272 q 242 294 263 288 q 170 324 206 306 q 107 368 135 342 q 61 431 79 394 q 43 514 43 467 q 57 596 43 560 q 96 657 71 632 q 72 706 82 678 q 63 763 63 735 q 84 860 63 819 q 141 927 106 901 q 222 965 176 953 q 315 976 268 976 q 424 957 368 976 q 542 913 479 938 l 481 749 q 385 801 422 783 q 317 819 349 819 q 258 808 282 819 q 235 765 235 796 q 242 749 235 754 q 263 740 250 743 q 292 733 275 736 q 326 724 308 729 q 403 692 364 713 q 476 640 443 671 q 530 567 508 610 q 551 471 551 525 m 379 469 q 353 520 379 494 q 292 557 328 546 l 254 565 q 226 549 238 560 q 214 518 214 539 q 221 505 214 514 q 239 485 228 496 q 264 466 250 475 q 292 453 278 457 l 343 438 q 379 469 379 453 z "},"©":{"ha":997,"x_min":28,"x_max":969,"o":"m 842 501 q 816 633 842 569 q 744 745 790 696 q 635 824 699 794 q 497 853 572 853 q 361 824 424 853 q 253 746 299 794 q 183 634 208 697 q 157 501 157 571 q 183 370 157 433 q 253 258 208 307 q 361 179 299 208 q 497 150 424 150 q 635 179 572 150 q 744 257 699 208 q 816 369 790 306 q 842 501 842 432 m 969 503 q 938 322 969 407 q 844 172 906 236 q 696 69 783 107 q 497 31 608 31 q 301 69 388 31 q 153 172 214 107 q 60 322 93 236 q 28 503 28 407 q 60 683 28 599 q 153 833 93 768 q 301 935 214 897 q 497 972 388 972 q 696 935 608 972 q 844 833 783 897 q 938 683 906 768 q 969 503 969 599 m 728 288 q 628 214 683 240 q 493 188 572 188 q 360 215 417 188 q 265 285 303 242 q 209 386 228 329 q 190 503 190 443 q 210 627 190 569 q 269 727 231 685 q 365 794 308 769 q 492 818 421 818 q 628 787 567 818 q 738 700 689 756 l 650 613 q 576 676 614 653 q 494 699 538 699 q 417 683 450 699 q 364 642 385 668 q 333 580 343 615 q 322 506 322 544 q 333 433 322 468 q 365 369 343 397 q 419 325 388 342 q 496 308 451 308 q 579 329 536 308 q 663 394 622 350 l 744 306 l 728 288 z "},"®":{"ha":997,"x_min":28,"x_max":969,"o":"m 969 481 q 938 299 969 385 q 844 149 906 214 q 696 47 783 85 q 497 8 608 8 q 301 47 388 8 q 153 149 214 85 q 60 299 93 214 q 28 481 28 385 q 60 661 28 576 q 153 810 93 746 q 301 913 214 875 q 497 950 388 950 q 696 913 608 950 q 844 810 783 875 q 938 661 906 746 q 969 481 969 576 m 843 479 q 817 610 843 547 q 745 723 792 674 q 635 801 699 772 q 497 831 572 831 q 400 816 446 831 q 315 776 354 801 l 510 776 q 592 766 553 776 q 662 733 632 756 q 709 675 692 710 q 726 592 726 640 q 699 486 726 524 q 631 432 672 449 q 655 384 642 408 q 683 333 668 360 l 742 231 q 816 344 789 279 q 843 479 843 408 m 156 479 q 193 320 156 396 q 297 194 231 244 l 297 764 q 193 640 231 715 q 156 479 156 564 m 306 189 q 394 144 346 160 q 497 128 443 128 q 602 144 553 128 q 692 189 651 160 l 610 189 l 494 401 l 439 401 l 439 189 l 306 189 m 592 592 q 567 631 590 619 q 507 643 544 643 l 439 643 l 439 539 l 500 539 q 567 555 542 539 q 592 592 593 571 z "},"÷":{"ha":269,"x_min":28,"x_max":242,"o":"m 28 107 q 57 183 28 151 q 135 215 86 215 q 210 183 179 215 q 242 107 242 151 q 210 29 242 58 q 135 0 179 0 q 57 29 86 0 q 28 107 28 58 m 28 585 q 57 662 28 631 q 135 693 86 693 q 210 662 179 693 q 242 585 242 631 q 210 508 242 538 q 135 478 179 478 q 57 508 86 478 q 28 585 28 538 z "},"ø":{"ha":713,"x_min":28,"x_max":685,"o":"m 90 -114 l 156 58 q 59 184 90 107 q 28 353 28 261 q 49 492 28 428 q 110 605 69 557 q 213 680 151 653 q 357 707 275 707 q 382 707 371 707 q 404 704 393 707 q 427 764 415 732 q 447 819 439 796 l 622 819 l 556 643 q 653 518 622 594 q 685 349 685 442 q 664 211 685 275 q 602 99 643 147 q 500 24 561 51 q 357 -3 439 -3 l 307 -3 l 297 -28 l 299 -26 q 280 -72 290 -46 q 265 -114 269 -99 l 90 -114 m 496 350 q 492 404 496 378 q 481 450 488 431 l 433 325 l 371 161 q 467 220 439 168 q 496 350 496 272 m 217 351 q 219 299 217 322 q 229 254 221 276 l 340 539 q 244 481 272 533 q 217 351 217 429 z "},"ß":{"ha":615,"x_min":28,"x_max":588,"o":"m 588 265 q 551 114 588 174 q 455 19 514 54 q 322 -29 396 -15 q 176 -43 249 -43 l 176 0 l 28 0 l 28 631 q 38 758 28 703 q 75 851 49 814 q 147 908 101 889 q 261 928 192 928 q 360 910 315 928 q 435 863 404 893 q 484 788 467 832 q 501 693 501 744 q 484 576 501 617 q 436 513 467 536 q 492 483 465 501 q 540 437 519 465 q 574 367 561 408 q 588 265 588 325 m 204 129 q 279 140 242 131 q 346 166 317 149 q 394 208 375 183 q 413 269 413 233 q 397 324 413 300 q 354 366 382 349 q 288 392 326 383 q 204 403 250 401 l 204 129 m 204 571 q 243 583 222 574 q 282 609 264 593 q 312 647 300 625 q 324 696 324 669 q 302 742 324 728 q 261 756 281 756 q 217 731 229 756 q 204 644 204 706 l 204 571 z "},"×":{"ha":614,"x_min":28,"x_max":586,"o":"m 142 632 l 304 469 l 467 633 l 581 515 l 421 356 l 586 193 l 469 78 l 307 238 l 144 75 l 28 186 l 190 353 q 108 435 151 392 q 28 514 64 478 l 142 632 z "},"Ø":{"ha":969,"x_min":28,"x_max":942,"o":"m 165 -143 l 239 60 q 147 140 186 93 q 81 242 107 186 q 41 362 54 299 q 28 492 28 425 q 57 676 28 588 q 143 834 86 765 q 285 944 200 903 q 483 985 371 985 q 575 976 531 985 l 624 1108 l 799 1108 l 729 918 q 822 839 782 885 q 888 738 861 793 q 928 619 915 682 q 942 492 942 557 q 913 304 942 394 q 826 145 883 214 q 683 35 768 76 q 483 -7 597 -7 q 392 1 435 -7 l 339 -143 l 165 -143 m 746 490 q 724 621 746 560 q 657 724 701 682 l 460 188 l 483 188 q 598 212 549 188 q 680 278 647 236 q 729 374 713 319 q 746 490 746 429 m 224 490 q 245 358 224 419 q 311 254 267 296 l 507 789 q 495 790 500 790 q 483 790 490 790 q 371 766 419 790 q 290 701 322 742 q 240 605 257 660 q 224 490 224 550 z "},"°":{"ha":403,"x_min":28,"x_max":375,"o":"m 214 804 q 201 821 214 821 q 192 804 192 821 q 201 789 192 789 q 214 804 214 789 m 375 804 q 364 739 375 769 q 331 685 353 708 q 276 649 308 663 q 201 636 243 636 q 129 650 161 636 q 75 687 97 664 q 40 740 53 710 q 28 804 28 771 q 75 924 28 878 q 201 971 122 971 q 331 923 286 971 q 375 804 375 875 z "},"µ":{"ha":576,"x_min":28,"x_max":549,"o":"m 390 0 l 390 22 q 363 12 379 17 q 330 3 347 7 q 294 -3 313 -1 q 263 -6 276 -6 q 231 -3 247 -6 q 201 4 215 0 l 201 -200 l 28 -200 l 28 692 l 201 692 l 201 275 q 226 194 201 226 q 292 163 251 163 q 336 190 315 163 q 368 243 357 217 l 368 692 l 543 692 l 549 0 l 390 0 z "},"ª":{"ha":640,"x_min":28,"x_max":613,"o":"m 432 546 q 379 555 407 553 q 322 557 351 557 q 281 553 301 557 q 245 542 261 550 q 219 522 229 535 q 210 489 210 508 q 234 451 210 464 q 301 439 258 439 q 374 452 340 439 q 432 494 408 465 l 432 546 m 432 275 l 432 289 q 361 272 399 275 q 283 268 324 268 q 183 282 229 268 q 101 324 136 296 q 47 392 67 351 q 28 488 28 433 q 51 595 28 549 q 112 673 74 642 q 201 719 150 704 q 307 735 251 735 q 369 734 340 735 q 431 726 399 733 q 322 803 418 803 q 256 788 286 803 q 182 718 225 772 l 49 835 q 176 942 111 907 q 325 976 242 976 q 442 960 389 976 q 533 911 494 943 q 592 831 571 879 q 613 721 613 783 l 613 275 l 432 275 z "},"±":{"ha":679,"x_min":28,"x_max":651,"o":"m 249 203 l 249 361 l 28 361 l 28 538 l 249 538 l 249 696 l 426 696 l 426 538 l 651 538 l 651 361 l 426 361 l 426 203 l 249 203 m 28 0 l 28 165 l 651 165 l 651 0 l 28 0 z "},"¬":{"ha":664,"x_min":28,"x_max":636,"o":"m 469 136 l 469 349 l 28 349 l 28 518 l 636 518 l 636 136 l 469 136 z "},"−":{"ha":679,"x_min":28,"x_max":651,"o":"m 28 268 l 28 432 l 651 432 l 651 268 l 28 268 z "},"¶":{"ha":689,"x_min":28,"x_max":661,"o":"m 469 0 l 469 833 l 429 833 l 429 0 l 238 0 l 238 528 q 135 556 176 535 q 71 608 94 578 q 38 674 47 639 q 28 744 28 710 q 38 823 28 782 q 75 897 47 864 q 153 952 103 931 q 286 974 204 974 l 661 974 l 661 0 l 469 0 z "},"Þ":{"ha":629,"x_min":28,"x_max":601,"o":"m 601 517 q 573 372 601 432 q 495 275 544 313 q 381 220 446 238 q 242 203 315 203 l 215 203 l 215 0 l 28 0 l 28 981 l 215 981 l 215 818 l 256 818 q 394 801 331 818 q 504 747 458 783 q 576 653 550 710 q 601 517 601 596 m 415 517 q 401 576 415 553 q 363 612 386 599 q 314 630 340 625 q 263 635 288 635 l 215 635 l 215 390 l 232 390 q 295 394 263 390 q 355 413 328 399 q 399 451 382 426 q 415 517 415 475 z "},"⁄":{"ha":511,"x_min":28,"x_max":483,"o":"m 199 0 l 28 0 l 313 972 l 483 972 l 199 0 z "},"‚":{"ha":374,"x_min":28,"x_max":346,"o":"m 179 -104 l 28 -104 l 169 218 l 346 218 l 179 -104 z "},"˛":{"ha":139,"x_min":0,"x_max":0,"o":""},"ı":{"ha":238,"x_min":28,"x_max":210,"o":"m 28 0 l 28 694 l 210 694 l 210 0 l 28 0 z "},"^":{"ha":504,"x_min":28,"x_max":476,"o":"m 28 815 l 156 972 l 349 972 l 476 815 l 301 815 l 251 868 l 203 815 l 28 815 z "},"G":{"ha":893,"x_min":28,"x_max":865,"o":"m 856 158 q 781 92 824 122 q 687 40 738 61 q 579 6 636 18 q 464 -6 522 -6 q 269 37 351 -6 q 134 149 188 79 q 54 308 81 218 q 28 492 28 397 q 54 675 28 586 q 134 833 81 764 q 269 943 188 901 q 464 985 351 985 q 674 933 582 985 q 843 789 765 881 l 699 661 q 579 764 636 738 q 467 790 522 790 q 358 765 404 790 q 281 699 311 740 q 237 603 251 657 q 222 490 222 549 q 237 377 222 432 q 281 281 251 322 q 358 213 311 239 q 467 188 404 188 q 518 190 490 188 q 574 198 546 192 q 627 213 601 204 q 671 238 653 222 l 671 406 l 424 406 l 424 600 l 865 600 l 865 171 l 856 158 z "},"E":{"ha":679,"x_min":28,"x_max":651,"o":"m 28 0 l 28 972 l 647 972 l 647 778 l 222 778 l 222 600 l 610 600 l 610 406 l 222 406 l 222 194 l 651 194 l 651 0 l 28 0 z "},"F":{"ha":675,"x_min":28,"x_max":647,"o":"m 28 0 l 28 972 l 647 972 l 647 778 l 222 778 l 222 600 l 610 600 l 610 406 l 222 406 l 222 0 l 28 0 z "},"J":{"ha":669,"x_min":28,"x_max":642,"o":"m 642 972 l 642 307 q 563 69 642 150 q 338 -11 485 -11 q 253 -1 292 -11 q 177 33 214 10 q 104 92 140 56 q 28 181 68 128 l 175 317 q 258 218 217 253 q 353 183 300 183 q 426 217 404 183 q 447 308 447 251 l 447 972 l 642 972 z "},"H":{"ha":771,"x_min":28,"x_max":743,"o":"m 549 0 l 549 406 l 222 406 l 222 0 l 28 0 l 28 972 l 222 972 l 222 600 l 549 600 l 549 972 l 743 972 l 743 0 l 549 0 z "},"I":{"ha":251,"x_min":28,"x_max":224,"o":"m 28 0 l 28 972 l 224 972 l 224 0 l 28 0 z "},"M":{"ha":933,"x_min":28,"x_max":906,"o":"m 711 0 l 711 558 q 651 458 682 510 q 588 356 619 407 q 524 254 556 304 q 467 160 493 204 l 219 550 l 219 0 l 28 0 l 28 972 l 178 972 l 467 511 q 613 742 539 624 q 757 972 686 861 l 906 972 l 906 0 l 711 0 z "},"K":{"ha":863,"x_min":28,"x_max":835,"o":"m 28 0 l 28 972 l 221 972 l 221 622 l 571 972 l 835 972 l 360 500 l 574 275 l 572 275 q 636 208 601 244 q 706 133 671 171 q 775 61 742 96 q 833 0 808 26 l 563 0 l 221 364 l 221 0 l 28 0 z "},"L":{"ha":678,"x_min":28,"x_max":650,"o":"m 28 0 l 28 972 l 222 972 l 222 194 l 650 194 l 650 0 l 28 0 z "},"%":{"ha":744,"x_min":28,"x_max":717,"o":"m 547 165 q 533 186 547 186 q 521 165 521 186 q 524 153 521 158 q 533 149 526 149 q 544 153 540 149 q 547 165 547 158 m 706 165 q 694 101 706 132 q 661 49 683 71 q 607 13 639 26 q 533 0 575 0 q 461 13 493 0 q 407 49 429 26 q 373 102 385 72 q 361 165 361 132 q 407 285 361 236 q 533 333 453 333 q 607 320 575 333 q 661 284 639 307 q 694 231 683 261 q 706 165 706 200 m 222 0 l 28 0 l 524 972 l 717 972 l 222 0 m 225 819 q 222 834 225 828 q 210 840 218 840 q 200 834 203 840 q 197 819 197 828 q 200 808 197 813 q 210 803 203 803 q 222 808 218 803 q 225 819 225 813 m 382 819 q 338 702 382 750 q 210 654 294 654 q 138 667 169 654 q 84 703 107 681 q 49 756 61 725 q 38 819 38 786 q 84 938 38 890 q 210 985 131 985 q 338 938 294 985 q 382 819 382 890 z "},"þ":{"ha":675,"x_min":28,"x_max":647,"o":"m 211 696 q 248 701 231 700 q 286 703 265 703 q 419 683 354 703 q 535 619 485 663 q 617 510 586 576 q 647 350 647 443 q 622 208 647 272 q 550 96 597 143 q 435 22 503 49 q 282 -4 367 -4 q 245 -4 263 -4 q 211 -1 228 -4 l 211 -251 l 29 -251 l 28 78 l 28 992 l 211 992 l 211 696 m 460 349 q 411 483 460 436 q 279 531 363 531 q 246 528 264 531 q 211 521 228 525 l 211 174 q 250 168 229 169 q 290 167 271 167 q 415 217 371 167 q 460 349 460 267 z "},"˘":{"ha":399,"x_min":28,"x_max":371,"o":"m 199 929 q 221 937 208 929 q 232 972 233 944 l 371 972 q 325 838 368 886 q 199 790 282 790 q 75 838 119 790 q 28 972 31 885 l 165 972 q 176 937 163 944 q 199 929 189 929 z "},"ˇ":{"ha":508,"x_min":28,"x_max":481,"o":"m 481 968 l 304 761 l 204 761 l 28 968 l 199 968 l 254 899 q 282 934 268 915 q 310 968 296 953 l 481 968 z "},"˙":{"ha":265,"x_min":28,"x_max":238,"o":"m 28 867 q 56 941 28 911 q 132 971 85 971 q 208 941 178 971 q 238 867 238 911 q 208 791 238 819 q 132 763 178 763 q 56 791 85 763 q 28 867 28 819 z "},"P":{"ha":732,"x_min":28,"x_max":704,"o":"m 222 372 l 222 0 l 28 0 l 28 972 l 403 972 q 520 949 465 972 q 616 884 575 925 q 681 788 657 843 q 704 671 704 733 q 681 554 704 608 q 616 460 657 500 q 520 396 575 419 q 403 372 465 372 l 222 372 m 222 567 l 403 567 q 478 597 447 567 q 510 671 510 626 q 478 746 510 715 q 403 778 447 776 l 222 778 l 222 567 z "},"N":{"ha":857,"x_min":28,"x_max":829,"o":"m 674 0 l 219 603 l 219 0 l 28 0 l 28 972 l 179 972 l 638 371 l 638 972 l 829 972 l 829 0 l 674 0 z "},"O":{"ha":969,"x_min":28,"x_max":942,"o":"m 746 490 q 729 604 746 550 q 680 700 713 658 q 598 766 647 742 q 483 790 549 790 q 371 766 419 790 q 290 701 322 742 q 240 605 257 660 q 224 490 224 550 q 240 374 224 429 q 290 278 257 319 q 371 212 322 236 q 483 188 419 188 q 598 212 549 188 q 680 278 647 236 q 729 374 713 319 q 746 490 746 429 m 942 492 q 913 304 942 394 q 826 145 883 214 q 683 35 768 76 q 483 -7 597 -7 q 285 35 371 -7 q 143 145 200 76 q 57 304 86 214 q 28 492 28 394 q 57 676 28 588 q 143 834 86 765 q 285 944 200 903 q 483 985 371 985 q 683 944 597 985 q 826 834 768 903 q 913 676 883 765 q 942 492 942 588 z "},"¡":{"ha":261,"x_min":28,"x_max":233,"o":"m 28 732 q 56 656 28 685 q 131 628 85 628 q 204 656 175 628 q 233 732 233 685 q 204 804 233 776 q 131 832 175 832 q 56 804 85 832 q 28 732 28 776 m 228 558 l 33 558 l 33 -139 l 228 -139 l 228 558 z "},"š":{"ha":622,"x_min":28,"x_max":594,"o":"m 440 475 q 388 524 418 503 q 322 544 357 544 q 274 529 289 544 q 260 500 260 514 q 290 467 260 481 q 360 442 319 454 q 436 414 397 429 q 507 374 475 399 q 559 311 539 349 q 579 215 579 274 q 558 122 579 163 q 501 52 538 81 q 418 8 465 24 q 317 -7 371 -7 q 168 31 238 -7 q 28 149 99 68 l 151 275 q 236 194 190 222 q 321 167 282 167 q 378 177 360 167 q 397 203 397 188 q 365 244 397 229 q 289 272 332 258 q 215 299 253 283 q 147 338 178 314 q 97 399 117 363 q 78 492 78 436 q 147 649 78 594 q 324 704 215 704 q 396 699 361 704 q 463 678 431 693 q 528 638 496 664 q 594 569 561 611 l 465 444 l 440 475 m 538 968 l 361 761 l 261 761 l 85 968 l 256 968 l 311 899 q 339 934 325 915 q 367 968 353 953 l 538 968 z "},"œ":{"ha":1157,"x_min":28,"x_max":1129,"o":"m 1101 106 q 988 23 1053 51 q 833 -6 924 -6 q 695 19 754 -6 q 594 86 636 43 q 493 17 553 42 q 354 -8 433 -8 q 211 19 272 -8 q 110 95 150 47 q 49 208 69 143 q 28 347 28 274 q 49 487 28 422 q 110 599 69 551 q 211 674 150 647 q 354 701 272 701 q 490 677 432 701 q 589 610 549 653 q 692 678 633 656 q 817 701 750 701 q 1051 595 972 701 q 1129 286 1129 489 l 689 286 q 742 197 703 228 q 839 165 781 165 q 922 188 879 165 q 1011 261 965 210 l 1129 138 l 1101 106 m 496 344 q 488 421 496 386 q 464 481 481 456 q 420 520 447 506 q 354 535 393 535 q 247 482 279 535 q 215 346 215 429 q 223 271 215 306 q 247 210 231 236 q 290 170 264 185 q 354 156 317 156 q 463 209 431 156 q 496 344 496 263 m 817 535 q 739 515 767 535 q 697 457 711 494 l 938 457 q 896 513 926 492 q 817 535 865 535 z "},"Ÿ":{"ha":961,"x_min":28,"x_max":933,"o":"m 479 660 l 582 806 l 700 972 l 933 972 l 578 449 q 577 346 578 399 q 576 240 576 293 l 576 0 l 382 0 l 382 451 l 206 710 l 28 972 l 260 972 l 479 660 m 269 1138 q 297 1210 269 1182 q 368 1238 324 1238 q 442 1210 414 1238 q 471 1138 471 1182 q 442 1065 471 1093 q 368 1038 414 1038 q 297 1065 324 1038 q 269 1138 269 1093 m 489 1138 q 516 1210 489 1182 q 588 1238 543 1238 q 662 1210 633 1238 q 690 1138 690 1182 q 662 1065 690 1093 q 588 1038 633 1038 q 516 1065 543 1038 q 489 1138 489 1093 z "},"Š":{"ha":822,"x_min":28,"x_max":794,"o":"m 596 713 q 522 767 564 753 q 428 782 481 782 q 328 760 364 782 q 292 707 292 739 q 310 673 292 689 q 355 643 328 657 q 415 616 382 629 q 478 592 447 603 l 476 592 q 568 555 517 578 q 665 497 619 532 q 741 410 710 461 q 772 290 772 360 q 745 163 772 218 q 670 69 718 107 q 558 13 622 32 q 418 -7 493 -7 q 219 42 314 -7 q 28 199 124 92 l 188 329 q 297 224 239 257 q 419 190 354 190 q 533 213 489 190 q 578 272 578 236 q 559 319 578 299 q 512 356 540 339 q 448 385 483 372 q 379 408 413 397 l 351 419 q 258 456 304 436 q 176 506 213 475 q 116 583 139 538 q 93 697 93 629 q 112 802 93 751 q 171 891 131 853 q 274 953 211 929 q 425 976 336 976 q 615 935 525 976 q 794 785 704 893 l 636 675 l 596 713 m 638 1254 l 461 1047 l 361 1047 l 185 1254 l 356 1254 l 411 1185 q 439 1220 425 1201 q 467 1254 453 1239 l 638 1254 z "},"¹":{"ha":160,"x_min":28,"x_max":132,"o":"m 28 417 l 28 944 l 133 982 l 133 417 l 28 417 z "},"º":{"ha":569,"x_min":26,"x_max":540,"o":"m 394 694 q 388 754 394 727 q 369 801 382 781 q 335 832 356 820 q 283 843 314 843 q 199 802 224 843 q 174 695 174 760 q 180 636 174 663 q 199 589 186 609 q 233 557 212 569 q 283 546 254 546 q 369 588 343 546 q 394 694 394 630 m 541 693 q 525 585 541 635 q 478 497 510 535 q 397 438 445 460 q 283 417 349 417 q 171 439 219 417 q 92 498 123 461 q 44 587 60 536 q 27 696 27 638 q 44 806 27 755 q 92 894 60 856 q 171 953 123 932 q 283 974 219 974 q 397 952 349 974 q 478 892 445 930 q 525 803 510 854 q 541 693 541 752 z "},"¼":{"ha":811,"x_min":28,"x_max":783,"o":"m 28 417 l 28 944 l 133 982 l 133 417 l 28 417 m 57 0 l 414 974 l 589 974 l 231 0 l 57 0 m 637 1 l 637 135 l 409 135 l 409 209 l 656 555 l 742 555 l 742 240 l 784 240 l 784 135 l 742 135 l 742 1 l 637 1 m 637 240 l 637 300 q 637 316 637 310 q 637 326 637 321 q 636 338 636 331 q 636 357 636 345 q 585 292 609 322 q 544 240 560 262 l 637 240 z "},"½":{"ha":849,"x_min":28,"x_max":821,"o":"m 464 93 l 621 257 q 646 286 632 270 q 670 318 659 302 q 689 350 682 334 q 697 380 697 366 q 692 407 697 394 q 678 431 687 421 q 656 448 669 442 q 625 454 642 454 q 597 450 612 454 q 569 436 583 446 q 544 413 555 427 q 526 379 532 399 l 450 439 q 525 524 479 492 q 625 556 571 556 q 700 542 667 556 q 757 505 733 529 q 793 449 780 482 q 806 378 806 417 q 796 326 806 352 q 772 277 787 300 q 740 232 758 253 q 708 194 723 211 l 639 121 l 626 104 l 821 104 l 821 0 l 464 0 l 464 93 m 28 417 l 28 944 l 133 982 l 133 417 l 28 417 m 57 0 l 414 974 l 589 974 l 231 0 l 57 0 z "},"¾":{"ha":1019,"x_min":28,"x_max":992,"o":"m 398 587 q 382 515 398 547 q 341 462 367 483 q 280 428 314 440 q 207 416 245 416 q 115 436 157 416 q 28 502 74 457 l 111 573 q 160 527 136 541 q 207 514 184 514 q 270 535 247 514 q 293 587 293 556 q 264 640 293 620 q 183 660 234 660 l 139 660 l 139 763 l 184 763 q 246 777 222 763 q 271 818 271 791 q 252 853 271 840 q 205 867 233 867 q 157 854 178 867 q 113 814 136 841 l 32 880 q 113 944 73 923 q 205 965 152 965 q 272 956 241 965 q 327 928 304 947 q 363 883 350 910 q 376 819 376 855 q 365 762 376 788 q 333 719 354 737 q 380 665 362 699 q 398 587 398 630 m 265 0 l 622 974 l 797 974 l 439 0 l 265 0 m 846 1 l 846 135 l 617 135 l 617 209 l 865 555 l 950 555 l 950 240 l 992 240 l 992 135 l 950 135 l 950 1 l 846 1 m 846 240 l 846 300 q 846 316 846 310 q 845 326 846 321 q 845 338 845 331 q 845 357 845 345 q 793 292 817 322 q 752 240 769 262 l 846 240 z "},"²":{"ha":433,"x_min":26,"x_max":404,"o":"m 41 513 l 200 680 q 226 710 212 694 q 251 742 240 726 q 270 775 263 759 q 278 806 278 791 q 273 834 278 820 q 259 858 268 847 q 236 875 250 869 q 205 882 223 882 q 177 877 192 882 q 148 863 162 873 q 122 839 134 854 q 104 805 110 825 l 27 866 q 103 952 56 920 q 205 985 150 985 q 281 971 248 985 q 339 934 315 958 q 376 876 363 910 q 389 803 389 843 q 379 751 389 777 q 355 700 370 724 q 323 655 340 676 q 289 615 305 633 l 220 541 l 206 524 l 405 524 l 405 418 l 41 418 l 41 513 z "},"³":{"ha":425,"x_min":28,"x_max":397,"o":"m 398 586 q 382 514 398 546 q 341 460 367 482 q 280 427 314 438 q 207 415 245 415 q 115 435 157 415 q 28 501 74 456 l 111 572 q 160 526 136 539 q 207 513 184 513 q 270 534 247 513 q 293 586 293 555 q 264 639 293 619 q 183 660 234 660 l 139 660 l 139 762 l 184 762 q 246 776 222 762 q 271 818 271 791 q 252 853 271 839 q 205 867 233 867 q 157 854 178 867 q 113 813 136 841 l 32 880 q 113 944 73 923 q 205 965 152 965 q 272 956 241 965 q 327 928 304 947 q 363 882 350 910 q 376 819 376 855 q 365 762 376 787 q 333 718 354 736 q 380 664 362 699 q 398 586 398 629 z "},"À":{"ha":924,"x_min":28,"x_max":896,"o":"m 586 264 l 336 264 q 288 132 313 200 q 242 0 264 64 l 28 0 l 376 972 l 547 972 l 896 0 l 681 0 l 586 264 m 406 457 l 517 457 l 490 533 q 483 556 485 550 q 478 567 481 561 q 473 582 476 572 q 461 615 469 592 l 406 457 m 446 1101 l 301 1258 l 493 1258 l 621 1101 l 446 1101 z "},"Á":{"ha":924,"x_min":28,"x_max":896,"o":"m 586 264 l 336 264 q 288 132 313 200 q 242 0 264 64 l 28 0 l 376 972 l 547 972 l 896 0 l 681 0 l 586 264 m 406 457 l 517 457 l 490 533 q 483 556 485 550 q 478 567 481 561 q 473 582 476 572 q 461 615 469 592 l 406 457 m 301 1101 l 429 1258 l 621 1258 l 476 1101 l 301 1101 z "},"Â":{"ha":924,"x_min":28,"x_max":896,"o":"m 586 264 l 336 264 q 288 132 313 200 q 242 0 264 64 l 28 0 l 376 972 l 547 972 l 896 0 l 681 0 l 586 264 m 406 457 l 517 457 l 490 533 q 483 556 485 550 q 478 567 481 561 q 473 582 476 572 q 461 615 469 592 l 406 457 m 197 976 l 399 1258 l 525 1258 l 726 976 l 535 976 l 461 1085 l 389 976 l 197 976 z "},"Ã":{"ha":924,"x_min":28,"x_max":896,"o":"m 586 264 l 336 264 q 288 132 313 200 q 242 0 264 64 l 28 0 l 376 972 l 547 972 l 896 0 l 681 0 l 586 264 m 406 457 l 517 457 l 490 533 q 483 556 485 550 q 478 567 481 561 q 473 582 476 572 q 461 615 469 592 l 406 457 m 719 1125 q 661 1088 686 1103 q 615 1063 636 1072 q 576 1049 594 1053 q 535 1044 557 1044 q 488 1051 508 1044 q 444 1069 468 1058 q 413 1085 429 1076 q 381 1093 396 1093 q 365 1088 375 1093 q 343 1074 356 1082 l 292 1035 l 204 1160 q 291 1233 251 1208 q 382 1257 331 1257 q 431 1249 404 1257 q 489 1228 457 1242 q 519 1215 508 1218 q 539 1211 531 1211 q 555 1215 546 1211 q 583 1229 564 1218 l 628 1257 l 719 1125 z "},"Ä":{"ha":924,"x_min":28,"x_max":896,"o":"m 586 264 l 336 264 q 288 132 313 200 q 242 0 264 64 l 28 0 l 376 972 l 547 972 l 896 0 l 681 0 l 586 264 m 406 457 l 517 457 l 490 533 q 483 556 485 550 q 478 567 481 561 q 473 582 476 572 q 461 615 469 592 l 406 457 m 251 1138 q 278 1210 251 1182 q 350 1238 306 1238 q 424 1210 396 1238 q 453 1138 453 1182 q 424 1065 453 1093 q 350 1038 396 1038 q 278 1065 306 1038 q 251 1138 251 1093 m 471 1138 q 498 1210 471 1182 q 569 1238 525 1238 q 644 1210 615 1238 q 672 1138 672 1182 q 644 1065 672 1093 q 569 1038 615 1038 q 498 1065 525 1038 q 471 1138 471 1093 z "},"Å":{"ha":924,"x_min":28,"x_max":896,"o":"m 631 1096 q 611 1013 631 1050 q 554 953 592 975 l 896 0 l 681 0 l 586 264 l 336 264 q 288 132 313 200 q 242 0 264 64 l 28 0 l 369 953 q 311 1012 331 974 q 292 1096 292 1050 q 335 1211 292 1164 q 461 1258 379 1258 q 588 1210 544 1258 q 631 1096 631 1163 m 406 457 l 517 457 l 490 533 l 461 615 l 406 457 m 482 1096 q 477 1113 482 1106 q 461 1121 472 1121 q 447 1114 451 1121 q 443 1096 443 1107 q 447 1078 443 1085 q 461 1071 451 1071 q 482 1096 482 1071 z "},"Ç":{"ha":871,"x_min":28,"x_max":843,"o":"m 389 -200 q 320 -187 358 -200 q 240 -151 282 -174 l 294 0 q 349 -30 322 -17 q 388 -43 375 -43 q 408 -35 400 -43 q 417 -7 417 -26 l 417 -3 q 243 51 317 6 q 122 164 169 96 q 51 317 74 232 q 28 492 28 403 q 54 675 28 586 q 134 833 81 764 q 269 943 188 901 q 464 985 351 985 q 674 933 582 985 q 843 789 765 881 l 699 661 q 580 764 636 738 q 467 790 524 790 q 358 765 404 790 q 281 699 311 740 q 237 603 251 657 q 222 490 222 549 q 237 377 222 432 q 281 281 251 322 q 358 213 311 239 q 467 188 404 188 q 581 215 525 188 q 699 321 638 243 l 843 193 q 719 77 786 125 q 574 8 653 29 q 575 -11 575 1 q 524 -151 575 -101 q 389 -200 474 -200 z "},"È":{"ha":679,"x_min":28,"x_max":651,"o":"m 28 0 l 28 972 l 647 972 l 647 778 l 222 778 l 222 600 l 610 600 l 610 406 l 222 406 l 222 194 l 651 194 l 651 0 l 28 0 m 324 1101 l 179 1258 l 371 1258 l 499 1101 l 324 1101 z "},"É":{"ha":679,"x_min":28,"x_max":651,"o":"m 28 0 l 28 972 l 647 972 l 647 778 l 222 778 l 222 600 l 610 600 l 610 406 l 222 406 l 222 194 l 651 194 l 651 0 l 28 0 m 179 1101 l 307 1258 l 499 1258 l 354 1101 l 179 1101 z "},"Ê":{"ha":679,"x_min":28,"x_max":651,"o":"m 28 0 l 28 972 l 647 972 l 647 778 l 222 778 l 222 600 l 610 600 l 610 406 l 222 406 l 222 194 l 651 194 l 651 0 l 28 0 m 75 976 l 276 1258 l 403 1258 l 604 976 l 413 976 l 339 1085 l 267 976 l 75 976 z "},"Ë":{"ha":679,"x_min":28,"x_max":651,"o":"m 28 0 l 28 972 l 647 972 l 647 778 l 222 778 l 222 600 l 610 600 l 610 406 l 222 406 l 222 194 l 651 194 l 651 0 l 28 0 m 129 1138 q 156 1210 129 1182 q 228 1238 183 1238 q 302 1210 274 1238 q 331 1138 331 1182 q 302 1065 331 1093 q 228 1038 274 1038 q 156 1065 183 1038 q 129 1138 129 1093 m 349 1138 q 376 1210 349 1182 q 447 1238 403 1238 q 522 1210 493 1238 q 550 1138 550 1182 q 522 1065 550 1093 q 447 1038 493 1038 q 376 1065 403 1038 q 349 1138 349 1093 z "},"Ì":{"ha":251,"x_min":-87,"x_max":232,"o":"m 28 0 l 28 972 l 224 972 l 224 0 l 28 0 m 57 1101 l -87 1258 l 104 1258 l 232 1101 l 57 1101 z "},"Í":{"ha":251,"x_min":24,"x_max":343,"o":"m 28 0 l 28 972 l 224 972 l 224 0 l 28 0 m 24 1101 l 151 1258 l 343 1258 l 199 1101 l 24 1101 z "},"Î":{"ha":251,"x_min":-137,"x_max":392,"o":"m 28 0 l 28 972 l 224 972 l 224 0 l 28 0 m -137 976 l 64 1258 l 190 1258 l 392 976 l 200 976 l 126 1085 l 54 976 l -137 976 z "},"Ï":{"ha":251,"x_min":-83,"x_max":338,"o":"m 28 0 l 28 972 l 224 972 l 224 0 l 28 0 m -83 1138 q -56 1210 -83 1182 q 15 1238 -29 1238 q 90 1210 61 1238 q 118 1138 118 1182 q 90 1065 118 1093 q 15 1038 61 1038 q -56 1065 -29 1038 q -83 1138 -83 1093 m 136 1138 q 163 1210 136 1182 q 235 1238 190 1238 q 309 1210 281 1238 q 338 1138 338 1182 q 309 1065 338 1093 q 235 1038 281 1038 q 163 1065 190 1038 q 136 1138 136 1093 z "},"Ñ":{"ha":857,"x_min":28,"x_max":829,"o":"m 674 0 l 219 603 l 219 0 l 28 0 l 28 972 l 179 972 l 638 371 l 638 972 l 829 972 l 829 0 l 674 0 m 686 1125 q 628 1088 653 1103 q 582 1063 603 1072 q 542 1049 561 1053 q 501 1044 524 1044 q 455 1051 475 1044 q 411 1069 435 1058 q 379 1085 396 1076 q 347 1093 363 1093 q 332 1088 342 1093 q 310 1074 322 1082 l 258 1035 l 171 1160 q 258 1233 218 1208 q 349 1257 297 1257 q 397 1249 371 1257 q 456 1228 424 1242 q 486 1215 475 1218 q 506 1211 497 1211 q 522 1215 513 1211 q 550 1229 531 1218 l 594 1257 l 686 1125 z "},"Ò":{"ha":969,"x_min":28,"x_max":942,"o":"m 746 490 q 729 604 746 550 q 680 700 713 658 q 598 766 647 742 q 483 790 549 790 q 371 766 419 790 q 290 701 322 742 q 240 605 257 660 q 224 490 224 550 q 240 374 224 429 q 290 278 257 319 q 371 212 322 236 q 483 188 419 188 q 598 212 549 188 q 680 278 647 236 q 729 374 713 319 q 746 490 746 429 m 942 492 q 913 304 942 394 q 826 145 883 214 q 683 35 768 76 q 483 -7 597 -7 q 285 35 371 -7 q 143 145 200 76 q 57 304 86 214 q 28 492 28 394 q 57 676 28 588 q 143 834 86 765 q 285 944 200 903 q 483 985 371 985 q 683 944 597 985 q 826 834 768 903 q 913 676 883 765 q 942 492 942 588 m 469 1101 l 325 1258 l 517 1258 l 644 1101 l 469 1101 z "},"Ó":{"ha":969,"x_min":28,"x_max":942,"o":"m 746 490 q 729 604 746 550 q 680 700 713 658 q 598 766 647 742 q 483 790 549 790 q 371 766 419 790 q 290 701 322 742 q 240 605 257 660 q 224 490 224 550 q 240 374 224 429 q 290 278 257 319 q 371 212 322 236 q 483 188 419 188 q 598 212 549 188 q 680 278 647 236 q 729 374 713 319 q 746 490 746 429 m 942 492 q 913 304 942 394 q 826 145 883 214 q 683 35 768 76 q 483 -7 597 -7 q 285 35 371 -7 q 143 145 200 76 q 57 304 86 214 q 28 492 28 394 q 57 676 28 588 q 143 834 86 765 q 285 944 200 903 q 483 985 371 985 q 683 944 597 985 q 826 834 768 903 q 913 676 883 765 q 942 492 942 588 m 325 1101 l 453 1258 l 644 1258 l 500 1101 l 325 1101 z "},"Ô":{"ha":969,"x_min":28,"x_max":942,"o":"m 746 490 q 729 604 746 550 q 680 700 713 658 q 598 766 647 742 q 483 790 549 790 q 371 766 419 790 q 290 701 322 742 q 240 605 257 660 q 224 490 224 550 q 240 374 224 429 q 290 278 257 319 q 371 212 322 236 q 483 188 419 188 q 598 212 549 188 q 680 278 647 236 q 729 374 713 319 q 746 490 746 429 m 942 492 q 913 304 942 394 q 826 145 883 214 q 683 35 768 76 q 483 -7 597 -7 q 285 35 371 -7 q 143 145 200 76 q 57 304 86 214 q 28 492 28 394 q 57 676 28 588 q 143 834 86 765 q 285 944 200 903 q 483 985 371 985 q 683 944 597 985 q 826 834 768 903 q 913 676 883 765 q 942 492 942 588 m 219 976 l 421 1258 l 547 1258 l 749 976 l 557 976 l 483 1085 l 411 976 l 219 976 z "},"Õ":{"ha":969,"x_min":28,"x_max":942,"o":"m 746 490 q 729 604 746 550 q 680 700 713 658 q 598 766 647 742 q 483 790 549 790 q 371 766 419 790 q 290 701 322 742 q 240 605 257 660 q 224 490 224 550 q 240 374 224 429 q 290 278 257 319 q 371 212 322 236 q 483 188 419 188 q 598 212 549 188 q 680 278 647 236 q 729 374 713 319 q 746 490 746 429 m 942 492 q 913 304 942 394 q 826 145 883 214 q 683 35 768 76 q 483 -7 597 -7 q 285 35 371 -7 q 143 145 200 76 q 57 304 86 214 q 28 492 28 394 q 57 676 28 588 q 143 834 86 765 q 285 944 200 903 q 483 985 371 985 q 683 944 597 985 q 826 834 768 903 q 913 676 883 765 q 942 492 942 588 m 742 1125 q 683 1088 708 1103 q 638 1063 658 1072 q 598 1049 617 1053 q 557 1044 579 1044 q 510 1051 531 1044 q 467 1069 490 1058 q 435 1085 451 1076 q 403 1093 418 1093 q 388 1088 397 1093 q 365 1074 378 1082 l 314 1035 l 226 1160 q 313 1233 274 1208 q 404 1257 353 1257 q 453 1249 426 1257 q 511 1228 479 1242 q 542 1215 531 1218 q 561 1211 553 1211 q 577 1215 568 1211 q 606 1229 586 1218 l 650 1257 l 742 1125 z "},"Ö":{"ha":969,"x_min":28,"x_max":942,"o":"m 746 490 q 729 604 746 550 q 680 700 713 658 q 598 766 647 742 q 483 790 549 790 q 371 766 419 790 q 290 701 322 742 q 240 605 257 660 q 224 490 224 550 q 240 374 224 429 q 290 278 257 319 q 371 212 322 236 q 483 188 419 188 q 598 212 549 188 q 680 278 647 236 q 729 374 713 319 q 746 490 746 429 m 942 492 q 913 304 942 394 q 826 145 883 214 q 683 35 768 76 q 483 -7 597 -7 q 285 35 371 -7 q 143 145 200 76 q 57 304 86 214 q 28 492 28 394 q 57 676 28 588 q 143 834 86 765 q 285 944 200 903 q 483 985 371 985 q 683 944 597 985 q 826 834 768 903 q 913 676 883 765 q 942 492 942 588 m 274 1138 q 301 1210 274 1182 q 372 1238 328 1238 q 447 1210 418 1238 q 475 1138 475 1182 q 447 1065 475 1093 q 372 1038 418 1038 q 301 1065 328 1038 q 274 1138 274 1093 m 493 1138 q 520 1210 493 1182 q 592 1238 547 1238 q 666 1210 638 1238 q 694 1138 694 1182 q 666 1065 694 1093 q 592 1038 638 1038 q 520 1065 547 1038 q 493 1138 493 1093 z "},"û":{"ha":669,"x_min":28,"x_max":642,"o":"m 211 694 l 211 267 q 245 190 211 215 q 325 165 279 165 q 408 183 376 165 q 458 228 439 200 l 458 694 l 642 694 l 642 0 l 463 0 l 463 19 q 306 -8 399 -8 q 197 8 247 -8 q 108 58 146 25 q 49 138 71 90 q 28 250 28 186 l 28 694 l 211 694 m 69 704 l 271 986 l 397 986 l 599 704 l 407 704 l 333 813 l 261 704 l 69 704 z "},"ú":{"ha":669,"x_min":28,"x_max":642,"o":"m 211 694 l 211 267 q 245 190 211 215 q 325 165 279 165 q 408 183 376 165 q 458 228 439 200 l 458 694 l 642 694 l 642 0 l 463 0 l 463 19 q 306 -8 399 -8 q 197 8 247 -8 q 108 58 146 25 q 49 138 71 90 q 28 250 28 186 l 28 694 l 211 694 m 175 815 l 303 972 l 494 972 l 350 815 l 175 815 z "},"ù":{"ha":669,"x_min":28,"x_max":642,"o":"m 211 694 l 211 267 q 245 190 211 215 q 325 165 279 165 q 408 183 376 165 q 458 228 439 200 l 458 694 l 642 694 l 642 0 l 463 0 l 463 19 q 306 -8 399 -8 q 197 8 247 -8 q 108 58 146 25 q 49 138 71 90 q 28 250 28 186 l 28 694 l 211 694 m 319 815 l 175 972 l 367 972 l 494 815 l 319 815 z "},"ö":{"ha":711,"x_min":28,"x_max":683,"o":"m 496 344 q 488 421 496 386 q 464 481 481 456 q 420 520 447 506 q 354 535 393 535 q 247 482 279 535 q 215 346 215 429 q 223 271 215 306 q 247 210 231 236 q 290 170 264 185 q 354 156 317 156 q 463 209 431 156 q 496 344 496 263 m 683 343 q 663 206 683 269 q 602 94 643 142 q 499 19 561 46 q 354 -8 438 -8 q 211 19 272 -8 q 110 95 150 47 q 49 208 69 143 q 28 347 28 274 q 49 487 28 422 q 110 599 69 551 q 211 674 150 647 q 354 701 272 701 q 499 674 438 701 q 602 597 561 646 q 663 483 643 549 q 683 343 683 418 m 144 851 q 172 924 144 896 q 243 951 199 951 q 317 924 289 951 q 346 851 346 896 q 317 779 346 807 q 243 751 289 751 q 172 779 199 751 q 144 851 144 807 m 364 851 q 391 924 364 896 q 463 951 418 951 q 537 924 508 951 q 565 851 565 896 q 537 779 565 807 q 463 751 508 751 q 391 779 418 751 q 364 851 364 807 z "},"õ":{"ha":711,"x_min":28,"x_max":683,"o":"m 496 344 q 488 421 496 386 q 464 481 481 456 q 420 520 447 506 q 354 535 393 535 q 247 482 279 535 q 215 346 215 429 q 223 271 215 306 q 247 210 231 236 q 290 170 264 185 q 354 156 317 156 q 463 209 431 156 q 496 344 496 263 m 683 343 q 663 206 683 269 q 602 94 643 142 q 499 19 561 46 q 354 -8 438 -8 q 211 19 272 -8 q 110 95 150 47 q 49 208 69 143 q 28 347 28 274 q 49 487 28 422 q 110 599 69 551 q 211 674 150 647 q 354 701 272 701 q 499 674 438 701 q 602 597 561 646 q 663 483 643 549 q 683 343 683 418 m 613 839 q 554 801 579 817 q 508 776 529 786 q 469 763 488 767 q 428 758 450 758 q 381 765 401 758 q 338 783 361 772 q 306 799 322 790 q 274 807 289 807 q 258 801 268 807 q 236 788 249 796 l 185 749 l 97 874 q 184 947 144 922 q 275 971 224 971 q 324 963 297 971 q 382 942 350 956 q 413 928 401 932 q 432 925 424 925 q 448 928 439 925 q 476 943 457 932 l 521 971 l 613 839 z "},"ó":{"ha":711,"x_min":28,"x_max":683,"o":"m 496 344 q 488 421 496 386 q 464 481 481 456 q 420 520 447 506 q 354 535 393 535 q 247 482 279 535 q 215 346 215 429 q 223 271 215 306 q 247 210 231 236 q 290 170 264 185 q 354 156 317 156 q 463 209 431 156 q 496 344 496 263 m 683 343 q 663 206 683 269 q 602 94 643 142 q 499 19 561 46 q 354 -8 438 -8 q 211 19 272 -8 q 110 95 150 47 q 49 208 69 143 q 28 347 28 274 q 49 487 28 422 q 110 599 69 551 q 211 674 150 647 q 354 701 272 701 q 499 674 438 701 q 602 597 561 646 q 663 483 643 549 q 683 343 683 418 m 196 815 l 324 972 l 515 972 l 371 815 l 196 815 z "},"ô":{"ha":711,"x_min":28,"x_max":683,"o":"m 496 344 q 488 421 496 386 q 464 481 481 456 q 420 520 447 506 q 354 535 393 535 q 247 482 279 535 q 215 346 215 429 q 223 271 215 306 q 247 210 231 236 q 290 170 264 185 q 354 156 317 156 q 463 209 431 156 q 496 344 496 263 m 683 343 q 663 206 683 269 q 602 94 643 142 q 499 19 561 46 q 354 -8 438 -8 q 211 19 272 -8 q 110 95 150 47 q 49 208 69 143 q 28 347 28 274 q 49 487 28 422 q 110 599 69 551 q 211 674 150 647 q 354 701 272 701 q 499 674 438 701 q 602 597 561 646 q 663 483 643 549 q 683 343 683 418 m 90 704 l 292 986 l 418 986 l 619 704 l 428 704 l 354 813 l 282 704 l 90 704 z "},"ò":{"ha":711,"x_min":28,"x_max":683,"o":"m 496 344 q 488 421 496 386 q 464 481 481 456 q 420 520 447 506 q 354 535 393 535 q 247 482 279 535 q 215 346 215 429 q 223 271 215 306 q 247 210 231 236 q 290 170 264 185 q 354 156 317 156 q 463 209 431 156 q 496 344 496 263 m 683 343 q 663 206 683 269 q 602 94 643 142 q 499 19 561 46 q 354 -8 438 -8 q 211 19 272 -8 q 110 95 150 47 q 49 208 69 143 q 28 347 28 274 q 49 487 28 422 q 110 599 69 551 q 211 674 150 647 q 354 701 272 701 q 499 674 438 701 q 602 597 561 646 q 663 483 643 549 q 683 343 683 418 m 340 815 l 196 972 l 388 972 l 515 815 l 340 815 z "},"ñ":{"ha":653,"x_min":28,"x_max":625,"o":"m 444 0 l 444 431 q 415 506 444 482 q 339 531 385 531 q 292 522 315 531 q 251 499 269 513 q 222 468 233 485 q 210 438 210 451 l 210 0 l 28 0 l 28 696 l 210 696 l 210 671 q 357 706 272 706 q 461 689 413 706 q 547 640 510 672 q 604 559 583 607 q 625 447 625 511 l 625 0 l 444 0 m 583 839 q 525 801 550 817 q 479 776 500 786 q 440 763 458 767 q 399 758 421 758 q 352 765 372 758 q 308 783 332 772 q 276 799 293 790 q 244 807 260 807 q 229 801 239 807 q 207 788 219 796 l 156 749 l 68 874 q 155 947 115 922 q 246 971 194 971 q 294 963 268 971 q 353 942 321 956 q 383 928 372 932 q 403 925 394 925 q 419 928 410 925 q 447 943 428 932 l 492 971 l 583 839 z "},"Ù":{"ha":854,"x_min":28,"x_max":826,"o":"m 425 -10 q 358 -6 389 -10 q 230 31 289 4 q 126 101 171 58 q 56 203 82 144 q 28 335 31 263 l 28 972 l 222 972 l 222 351 q 237 281 222 311 q 276 231 251 251 q 333 200 300 211 q 404 186 367 189 q 413 185 411 185 q 417 185 414 185 l 436 185 q 440 185 439 185 q 449 186 442 185 q 519 200 486 189 q 578 231 553 211 q 617 281 603 251 q 632 351 632 311 l 632 972 l 826 972 l 826 335 q 798 203 824 261 q 728 101 772 144 q 623 30 683 57 q 492 -6 563 3 l 446 -10 l 425 -10 l 425 -10 m 411 1101 l 267 1258 l 458 1258 l 586 1101 l 411 1101 z "},"Ú":{"ha":854,"x_min":28,"x_max":826,"o":"m 425 -10 q 358 -6 389 -10 q 230 31 289 4 q 126 101 171 58 q 56 203 82 144 q 28 335 31 263 l 28 972 l 222 972 l 222 351 q 237 281 222 311 q 276 231 251 251 q 333 200 300 211 q 404 186 367 189 q 413 185 411 185 q 417 185 414 185 l 436 185 q 440 185 439 185 q 449 186 442 185 q 519 200 486 189 q 578 231 553 211 q 617 281 603 251 q 632 351 632 311 l 632 972 l 826 972 l 826 335 q 798 203 824 261 q 728 101 772 144 q 623 30 683 57 q 492 -6 563 3 l 446 -10 l 425 -10 l 425 -10 m 267 1101 l 394 1258 l 586 1258 l 442 1101 l 267 1101 z "},"Û":{"ha":854,"x_min":28,"x_max":826,"o":"m 425 -10 q 358 -6 389 -10 q 230 31 289 4 q 126 101 171 58 q 56 203 82 144 q 28 335 31 263 l 28 972 l 222 972 l 222 351 q 237 281 222 311 q 276 231 251 251 q 333 200 300 211 q 404 186 367 189 q 413 185 411 185 q 417 185 414 185 l 436 185 q 440 185 439 185 q 449 186 442 185 q 519 200 486 189 q 578 231 553 211 q 617 281 603 251 q 632 351 632 311 l 632 972 l 826 972 l 826 335 q 798 203 824 261 q 728 101 772 144 q 623 30 683 57 q 492 -6 563 3 l 446 -10 l 425 -10 l 425 -10 m 163 976 l 364 1258 l 490 1258 l 692 976 l 500 976 l 426 1085 l 354 976 l 163 976 z "},"Ü":{"ha":854,"x_min":28,"x_max":826,"o":"m 425 -10 q 358 -6 389 -10 q 230 31 289 4 q 126 101 171 58 q 56 203 82 144 q 28 335 31 263 l 28 972 l 222 972 l 222 351 q 237 281 222 311 q 276 231 251 251 q 333 200 300 211 q 404 186 367 189 q 413 185 411 185 q 417 185 414 185 l 436 185 q 440 185 439 185 q 449 186 442 185 q 519 200 486 189 q 578 231 553 211 q 617 281 603 251 q 632 351 632 311 l 632 972 l 826 972 l 826 335 q 798 203 824 261 q 728 101 772 144 q 623 30 683 57 q 492 -6 563 3 l 446 -10 l 425 -10 l 425 -10 m 217 1138 q 244 1210 217 1182 q 315 1238 271 1238 q 390 1210 361 1238 q 418 1138 418 1182 q 390 1065 418 1093 q 315 1038 361 1038 q 244 1065 271 1038 q 217 1138 217 1093 m 436 1138 q 463 1210 436 1182 q 535 1238 490 1238 q 609 1210 581 1238 q 638 1138 638 1182 q 609 1065 638 1093 q 535 1038 581 1038 q 463 1065 490 1038 q 436 1138 436 1093 z "},"Ý":{"ha":961,"x_min":28,"x_max":933,"o":"m 479 660 l 582 806 l 700 972 l 933 972 l 578 449 q 577 346 578 399 q 576 240 576 293 l 576 0 l 382 0 l 382 451 l 206 710 l 28 972 l 260 972 l 479 660 m 321 1101 l 449 1258 l 640 1258 l 496 1101 l 321 1101 z "},"ü":{"ha":669,"x_min":28,"x_max":642,"o":"m 211 694 l 211 267 q 245 190 211 215 q 325 165 279 165 q 408 183 376 165 q 458 228 439 200 l 458 694 l 642 694 l 642 0 l 463 0 l 463 19 q 306 -8 399 -8 q 197 8 247 -8 q 108 58 146 25 q 49 138 71 90 q 28 250 28 186 l 28 694 l 211 694 m 124 851 q 151 924 124 896 q 222 951 178 951 q 297 924 268 951 q 325 851 325 896 q 297 779 325 807 q 222 751 268 751 q 151 779 178 751 q 124 851 124 807 m 343 851 q 370 924 343 896 q 442 951 397 951 q 516 924 488 951 q 544 851 544 896 q 516 779 544 807 q 442 751 488 751 q 370 779 397 751 q 343 851 343 807 z "},"ý":{"ha":785,"x_min":28,"x_max":757,"o":"m 106 -86 q 164 -72 131 -81 q 227 -49 197 -62 q 278 -15 257 -35 q 303 32 300 6 l 28 694 l 231 694 l 394 283 l 558 694 l 757 694 l 460 -32 q 353 -178 435 -118 q 146 -251 272 -237 l 106 -86 m 232 815 l 360 972 l 551 972 l 407 815 l 232 815 z "},"ÿ":{"ha":785,"x_min":28,"x_max":757,"o":"m 106 -86 q 164 -72 131 -81 q 227 -49 197 -62 q 278 -15 257 -35 q 303 32 300 6 l 28 694 l 231 694 l 394 283 l 558 694 l 757 694 l 460 -32 q 353 -178 435 -118 q 146 -251 272 -237 l 106 -86 m 182 851 q 209 924 182 896 q 281 951 236 951 q 355 924 326 951 q 383 851 383 896 q 355 779 383 807 q 281 751 326 751 q 209 779 236 751 q 182 851 182 807 m 401 851 q 428 924 401 896 q 500 951 456 951 q 574 924 546 951 q 603 851 603 896 q 574 779 603 807 q 500 751 546 751 q 428 779 456 751 q 401 851 401 807 z "},"à":{"ha":640,"x_min":28,"x_max":613,"o":"m 432 271 q 379 280 407 278 q 322 282 351 282 q 281 278 301 282 q 245 267 261 275 q 219 247 229 260 q 210 214 210 233 q 234 176 210 189 q 301 164 258 164 q 374 177 340 164 q 432 219 408 190 l 432 271 m 432 0 l 432 14 q 361 -3 399 0 q 283 -7 324 -7 q 183 7 229 -7 q 101 49 136 21 q 47 117 67 76 q 28 213 28 158 q 51 320 28 274 q 112 398 74 367 q 201 444 150 429 q 307 460 251 460 q 369 459 340 460 q 431 451 399 458 q 322 528 418 528 q 256 513 286 528 q 182 443 225 497 l 49 560 q 176 667 111 632 q 325 701 242 701 q 442 685 389 701 q 533 636 494 668 q 592 556 571 604 q 613 446 613 508 l 613 0 l 432 0 m 304 815 l 160 972 l 351 972 l 479 815 l 304 815 z "},"á":{"ha":640,"x_min":28,"x_max":613,"o":"m 432 271 q 379 280 407 278 q 322 282 351 282 q 281 278 301 282 q 245 267 261 275 q 219 247 229 260 q 210 214 210 233 q 234 176 210 189 q 301 164 258 164 q 374 177 340 164 q 432 219 408 190 l 432 271 m 432 0 l 432 14 q 361 -3 399 0 q 283 -7 324 -7 q 183 7 229 -7 q 101 49 136 21 q 47 117 67 76 q 28 213 28 158 q 51 320 28 274 q 112 398 74 367 q 201 444 150 429 q 307 460 251 460 q 369 459 340 460 q 431 451 399 458 q 322 528 418 528 q 256 513 286 528 q 182 443 225 497 l 49 560 q 176 667 111 632 q 325 701 242 701 q 442 685 389 701 q 533 636 494 668 q 592 556 571 604 q 613 446 613 508 l 613 0 l 432 0 m 160 815 l 288 972 l 479 972 l 335 815 l 160 815 z "},"â":{"ha":640,"x_min":28,"x_max":613,"o":"m 432 271 q 379 280 407 278 q 322 282 351 282 q 281 278 301 282 q 245 267 261 275 q 219 247 229 260 q 210 214 210 233 q 234 176 210 189 q 301 164 258 164 q 374 177 340 164 q 432 219 408 190 l 432 271 m 432 0 l 432 14 q 361 -3 399 0 q 283 -7 324 -7 q 183 7 229 -7 q 101 49 136 21 q 47 117 67 76 q 28 213 28 158 q 51 320 28 274 q 112 398 74 367 q 201 444 150 429 q 307 460 251 460 q 369 459 340 460 q 431 451 399 458 q 322 528 418 528 q 256 513 286 528 q 182 443 225 497 l 49 560 q 176 667 111 632 q 325 701 242 701 q 442 685 389 701 q 533 636 494 668 q 592 556 571 604 q 613 446 613 508 l 613 0 l 432 0 m 56 704 l 257 986 l 383 986 l 585 704 l 393 704 l 319 813 l 247 704 l 56 704 z "},"ã":{"ha":640,"x_min":28,"x_max":613,"o":"m 432 271 q 379 280 407 278 q 322 282 351 282 q 281 278 301 282 q 245 267 261 275 q 219 247 229 260 q 210 214 210 233 q 234 176 210 189 q 301 164 258 164 q 374 177 340 164 q 432 219 408 190 l 432 271 m 432 0 l 432 14 q 361 -3 399 0 q 283 -7 324 -7 q 183 7 229 -7 q 101 49 136 21 q 47 117 67 76 q 28 213 28 158 q 51 320 28 274 q 112 398 74 367 q 201 444 150 429 q 307 460 251 460 q 369 459 340 460 q 431 451 399 458 q 322 528 418 528 q 256 513 286 528 q 182 443 225 497 l 49 560 q 176 667 111 632 q 325 701 242 701 q 442 685 389 701 q 533 636 494 668 q 592 556 571 604 q 613 446 613 508 l 613 0 l 432 0 m 578 839 q 519 801 544 817 q 474 776 494 786 q 434 763 453 767 q 393 758 415 758 q 347 765 367 758 q 303 783 326 772 q 271 799 288 790 q 239 807 254 807 q 224 801 233 807 q 201 788 214 796 l 150 749 l 63 874 q 149 947 110 922 q 240 971 189 971 q 289 963 263 971 q 347 942 315 956 q 378 928 367 932 q 397 925 389 925 q 413 928 404 925 q 442 943 422 932 l 486 971 l 578 839 z "},"ä":{"ha":640,"x_min":28,"x_max":613,"o":"m 432 271 q 379 280 407 278 q 322 282 351 282 q 281 278 301 282 q 245 267 261 275 q 219 247 229 260 q 210 214 210 233 q 234 176 210 189 q 301 164 258 164 q 374 177 340 164 q 432 219 408 190 l 432 271 m 432 0 l 432 14 q 361 -3 399 0 q 283 -7 324 -7 q 183 7 229 -7 q 101 49 136 21 q 47 117 67 76 q 28 213 28 158 q 51 320 28 274 q 112 398 74 367 q 201 444 150 429 q 307 460 251 460 q 369 459 340 460 q 431 451 399 458 q 322 528 418 528 q 256 513 286 528 q 182 443 225 497 l 49 560 q 176 667 111 632 q 325 701 242 701 q 442 685 389 701 q 533 636 494 668 q 592 556 571 604 q 613 446 613 508 l 613 0 l 432 0 m 110 851 q 137 924 110 896 q 208 951 164 951 q 283 924 254 951 q 311 851 311 896 q 283 779 311 807 q 208 751 254 751 q 137 779 164 751 q 110 851 110 807 m 329 851 q 356 924 329 896 q 428 951 383 951 q 502 924 474 951 q 531 851 531 896 q 502 779 531 807 q 428 751 474 751 q 356 779 383 751 q 329 851 329 807 z "},"å":{"ha":640,"x_min":28,"x_max":613,"o":"m 432 271 q 379 280 407 278 q 322 282 351 282 q 281 278 301 282 q 245 267 261 275 q 219 247 229 260 q 210 214 210 233 q 234 176 210 189 q 301 164 258 164 q 374 177 340 164 q 432 219 408 190 l 432 271 m 432 0 l 432 14 q 361 -3 399 0 q 283 -7 324 -7 q 183 7 229 -7 q 101 49 136 21 q 47 117 67 76 q 28 213 28 158 q 51 320 28 274 q 112 398 74 367 q 201 444 150 429 q 307 460 251 460 q 369 459 340 460 q 431 451 399 458 q 322 528 418 528 q 256 513 286 528 q 182 443 225 497 l 49 560 q 176 667 111 632 q 325 701 242 701 q 442 685 389 701 q 533 636 494 668 q 592 556 571 604 q 613 446 613 508 l 613 0 l 432 0 m 340 810 q 335 827 340 819 q 319 835 331 835 q 306 828 310 835 q 301 810 301 821 q 306 792 301 799 q 319 785 310 785 q 340 810 340 785 m 489 810 q 478 745 489 775 q 445 693 467 715 q 392 658 424 671 q 319 644 361 644 q 194 692 238 644 q 150 810 150 740 q 194 925 150 878 q 319 972 238 972 q 446 924 403 972 q 489 810 489 876 z "},"æ":{"ha":1090,"x_min":28,"x_max":1063,"o":"m 432 0 l 432 14 q 361 -3 399 0 q 283 -7 324 -7 q 183 7 229 -7 q 101 49 136 21 q 47 117 67 76 q 28 213 28 158 q 51 320 28 274 q 112 398 74 367 q 201 444 150 429 q 307 460 251 460 q 369 459 340 460 q 431 451 399 458 q 322 528 418 528 q 256 513 286 528 q 182 443 225 497 l 49 560 q 176 667 111 632 q 325 701 242 701 q 540 628 464 701 q 637 683 583 665 q 750 701 690 701 q 984 595 906 701 q 1063 286 1063 489 l 622 286 q 675 197 636 228 q 772 165 714 165 q 856 188 813 165 q 944 261 899 210 l 1063 138 l 1035 106 q 922 23 986 51 q 767 -6 857 -6 q 613 26 679 -6 l 613 0 l 432 0 m 432 271 q 379 280 407 278 q 322 282 351 282 q 281 278 301 282 q 245 267 261 275 q 219 247 229 260 q 210 214 210 233 q 234 176 210 189 q 301 164 258 164 q 374 177 340 164 q 432 219 408 190 l 432 271 m 750 535 q 672 515 700 535 q 631 457 644 494 l 871 457 q 829 513 860 492 q 750 535 799 535 z "},"ç":{"ha":675,"x_min":28,"x_max":647,"o":"m 290 -200 q 222 -187 260 -200 q 142 -151 183 -174 l 196 0 q 250 -30 224 -17 q 289 -43 276 -43 q 310 -35 301 -43 q 318 -7 318 -26 l 318 -1 q 188 37 243 6 q 98 116 133 68 q 45 224 63 164 q 28 350 28 285 q 49 488 28 424 q 111 601 69 553 q 214 676 153 649 q 356 703 275 703 q 511 663 440 703 q 644 554 582 622 l 518 432 q 438 503 478 476 q 358 531 399 531 q 290 516 318 531 q 244 477 263 501 q 219 421 226 453 q 211 353 211 389 q 219 283 211 317 q 246 224 228 250 q 292 183 264 199 q 360 167 321 167 q 444 191 400 167 q 533 268 488 215 l 647 144 l 617 103 q 475 13 557 39 q 476 0 475 6 q 476 -11 476 -6 q 426 -151 476 -101 q 290 -200 375 -200 z "},"è":{"ha":686,"x_min":28,"x_max":658,"o":"m 631 106 q 517 23 582 51 q 363 -6 453 -6 q 215 23 278 -6 q 111 100 153 51 q 49 211 69 149 q 28 343 28 274 q 53 502 28 435 q 122 614 78 569 q 223 680 165 658 q 346 701 281 701 q 580 595 501 701 q 658 286 658 489 l 218 286 q 271 197 232 228 q 368 165 310 165 q 451 188 408 165 q 540 261 494 210 l 658 138 l 631 106 m 346 535 q 268 515 296 535 q 226 457 240 494 l 467 457 q 425 513 456 492 q 346 535 394 535 m 328 815 l 183 972 l 375 972 l 503 815 l 328 815 z "},"é":{"ha":686,"x_min":28,"x_max":658,"o":"m 631 106 q 517 23 582 51 q 363 -6 453 -6 q 215 23 278 -6 q 111 100 153 51 q 49 211 69 149 q 28 343 28 274 q 53 502 28 435 q 122 614 78 569 q 223 680 165 658 q 346 701 281 701 q 580 595 501 701 q 658 286 658 489 l 218 286 q 271 197 232 228 q 368 165 310 165 q 451 188 408 165 q 540 261 494 210 l 658 138 l 631 106 m 346 535 q 268 515 296 535 q 226 457 240 494 l 467 457 q 425 513 456 492 q 346 535 394 535 m 183 815 l 311 972 l 503 972 l 358 815 l 183 815 z "},"ê":{"ha":686,"x_min":28,"x_max":658,"o":"m 631 106 q 517 23 582 51 q 363 -6 453 -6 q 215 23 278 -6 q 111 100 153 51 q 49 211 69 149 q 28 343 28 274 q 53 502 28 435 q 122 614 78 569 q 223 680 165 658 q 346 701 281 701 q 580 595 501 701 q 658 286 658 489 l 218 286 q 271 197 232 228 q 368 165 310 165 q 451 188 408 165 q 540 261 494 210 l 658 138 l 631 106 m 346 535 q 268 515 296 535 q 226 457 240 494 l 467 457 q 425 513 456 492 q 346 535 394 535 m 78 704 l 279 986 l 406 986 l 607 704 l 415 704 l 342 813 l 269 704 l 78 704 z "},"ë":{"ha":686,"x_min":28,"x_max":658,"o":"m 631 106 q 517 23 582 51 q 363 -6 453 -6 q 215 23 278 -6 q 111 100 153 51 q 49 211 69 149 q 28 343 28 274 q 53 502 28 435 q 122 614 78 569 q 223 680 165 658 q 346 701 281 701 q 580 595 501 701 q 658 286 658 489 l 218 286 q 271 197 232 228 q 368 165 310 165 q 451 188 408 165 q 540 261 494 210 l 658 138 l 631 106 m 346 535 q 268 515 296 535 q 226 457 240 494 l 467 457 q 425 513 456 492 q 346 535 394 535 m 132 851 q 159 924 132 896 q 231 951 186 951 q 305 924 276 951 q 333 851 333 896 q 305 779 333 807 q 231 751 276 751 q 159 779 186 751 q 132 851 132 807 m 351 851 q 378 924 351 896 q 450 951 406 951 q 524 924 496 951 q 553 851 553 896 q 524 779 553 807 q 450 751 496 751 q 378 779 406 751 q 351 851 351 807 z "},"ì":{"ha":256,"x_min":-87,"x_max":232,"o":"m 38 0 l 38 694 l 219 694 l 219 0 l 38 0 m 57 815 l -87 972 l 104 972 l 232 815 l 57 815 z "},"í":{"ha":256,"x_min":24,"x_max":343,"o":"m 38 0 l 38 694 l 219 694 l 219 0 l 38 0 m 24 815 l 151 972 l 343 972 l 199 815 l 24 815 z "},"î":{"ha":256,"x_min":-136,"x_max":393,"o":"m 38 0 l 38 694 l 219 694 l 219 0 l 38 0 m -136 704 l 65 986 l 192 986 l 393 704 l 201 704 l 128 813 l 56 704 l -136 704 z "},"ï":{"ha":256,"x_min":-82,"x_max":339,"o":"m 38 0 l 38 694 l 219 694 l 219 0 l 38 0 m -82 851 q -55 924 -82 896 q 17 951 -28 951 q 91 924 63 951 q 119 851 119 896 q 91 779 119 807 q 17 751 63 751 q -55 779 -28 751 q -82 851 -82 807 m 138 851 q 165 924 138 896 q 236 951 192 951 q 310 924 282 951 q 339 851 339 896 q 310 779 339 807 q 236 751 282 751 q 165 779 192 751 q 138 851 138 807 z "},"Ž":{"ha":792,"x_min":28,"x_max":764,"o":"m 300 194 l 764 194 l 764 0 l 28 0 l 28 157 l 461 778 l 54 778 l 54 972 l 732 972 l 732 818 l 300 194 m 622 1254 l 446 1047 l 346 1047 l 169 1254 l 340 1254 l 396 1185 q 424 1220 410 1201 q 451 1254 438 1239 l 622 1254 z "},"ž":{"ha":607,"x_min":28,"x_max":579,"o":"m 272 179 l 579 179 l 579 0 l 28 0 l 28 147 l 308 517 l 28 517 l 28 694 l 561 694 l 561 549 l 272 179 m 529 968 l 353 761 l 253 761 l 76 968 l 247 968 l 303 899 q 331 934 317 915 q 358 968 344 953 l 529 968 z "},"S":{"ha":822,"x_min":28,"x_max":794,"o":"m 596 713 q 522 767 564 753 q 428 782 481 782 q 328 760 364 782 q 292 707 292 739 q 310 673 292 689 q 355 643 328 657 q 415 616 382 629 q 478 592 447 603 l 476 592 q 568 555 517 578 q 665 497 619 532 q 741 410 710 461 q 772 290 772 360 q 745 163 772 218 q 670 69 718 107 q 558 13 622 32 q 418 -7 493 -7 q 219 42 314 -7 q 28 199 124 92 l 188 329 q 297 224 239 257 q 419 190 354 190 q 533 213 489 190 q 578 272 578 236 q 559 319 578 299 q 512 356 540 339 q 448 385 483 372 q 379 408 413 397 l 351 419 q 258 456 304 436 q 176 506 213 475 q 116 583 139 538 q 93 697 93 629 q 112 802 93 751 q 171 891 131 853 q 274 953 211 929 q 425 976 336 976 q 615 935 525 976 q 794 785 704 893 l 636 675 l 596 713 z "},"Q":{"ha":969,"x_min":28,"x_max":942,"o":"m 942 492 q 927 351 942 419 q 881 223 913 282 q 803 117 850 164 q 692 39 756 69 l 725 -1 q 747 -29 733 -12 q 774 -64 760 -46 q 801 -99 789 -82 q 822 -125 814 -115 l 588 -125 l 499 -7 l 485 -7 q 286 35 372 -7 q 143 145 200 76 q 57 304 86 214 q 28 492 28 394 q 57 676 28 588 q 143 834 86 765 q 286 944 200 903 q 485 985 372 985 q 683 944 597 985 q 826 834 769 903 q 913 676 883 765 q 942 492 942 588 m 746 490 q 729 604 746 550 q 680 700 713 658 q 599 766 647 742 q 485 790 550 790 q 371 766 419 790 q 290 701 322 742 q 240 605 257 660 q 224 490 224 550 q 240 374 224 429 q 290 278 257 319 q 371 212 322 236 q 485 188 419 188 q 599 212 550 188 q 680 278 647 236 q 729 374 713 319 q 746 490 746 429 z "},"R":{"ha":796,"x_min":28,"x_max":768,"o":"m 343 372 l 222 372 l 222 0 l 28 0 l 28 972 l 404 972 q 519 949 465 972 q 615 884 574 925 q 679 788 656 843 q 703 671 703 733 q 661 519 703 588 q 553 411 619 450 l 768 0 l 547 0 l 343 372 m 222 567 l 404 567 q 478 597 447 567 q 508 671 508 626 q 478 746 508 715 q 404 778 447 776 l 222 778 l 222 567 z "}}}
